Open Sans-Light Condensed.ufo
<glyph name="asterisk" format="1">
  <advance width="745"/>
  <unicode hex="002A"/>
  <note>
    asterisk
  </note>
  <outline>
    <contour>
      <point x="258" y="975" type="line"/>
      <point x="375" y="1214" type="line"/>
      <point x="483" y="977" type="line"/>
      <point x="580" y="1022" type="line"/>
      <point x="424" y="1249" type="line"/>
      <point x="651" y="1257" type="line"/>
      <point x="637" y="1364" type="line"/>
      <point x="406" y="1307" type="line"/>
      <point x="434" y="1556" type="line"/>
      <point x="313" y="1556" type="line"/>
      <point x="340" y="1307" type="line"/>
      <point x="111" y="1362" type="line"/>
      <point x="94" y="1255" type="line"/>
      <point x="315" y="1249" type="line"/>
      <point x="166" y="1022" type="line"/>
    </contour>
  </outline>
</glyph>
<glyph name="slash" format="1">
  <advance width="713"/>
  <unicode hex="002F"/>
  <note>
    slash
  </note>
  <outline>
    <contour>
      <point x="51" y="0" type="line"/>
      <point x="152" y="0" type="line"/>
      <point x="674" y="1462" type="line"/>
      <point x="578" y="1462" type="line"/>
    </contour>
  </outline>
</glyph>
<glyph name="colon" format="1">
  <advance width="422"/>
  <unicode hex="003A"/>
  <note>
    colon
  </note>
  <outline>
    <contour>
      <point x="211" y="874" type="curve" smooth="yes"/>
      <point x="254" y="874"/>
      <point x="289" y="905"/>
      <point x="289" y="981" type="curve" smooth="yes"/>
      <point x="289" y="1052"/>
      <point x="263" y="1087"/>
      <point x="211" y="1087" type="curve" smooth="yes"/>
      <point x="159" y="1087"/>
      <point x="133" y="1052"/>
      <point x="133" y="981" type="curve" smooth="yes"/>
      <point x="133" y="910"/>
      <point x="159" y="874"/>
    </contour>
    <contour>
      <point x="211" y="-16" type="curve" smooth="yes"/>
      <point x="254" y="-16"/>
      <point x="289" y="14"/>
      <point x="289" y="90" type="curve" smooth="yes"/>
      <point x="289" y="169"/>
      <point x="254" y="197"/>
      <point x="211" y="197" type="curve" smooth="yes"/>
      <point x="159" y="197"/>
      <point x="133" y="161"/>
      <point x="133" y="90" type="curve" smooth="yes"/>
      <point x="133" y="19"/>
      <point x="159" y="-16"/>
    </contour>
  </outline>
</glyph>
<glyph name="semicolon" format="1">
  <advance width="422"/>
  <unicode hex="003B"/>
  <note>
    semicolon
  </note>
  <outline>
    <contour>
      <point x="78" y="-264" type="curve"/>
      <point x="141" y="-264" type="line"/>
      <point x="208" y="-117"/>
      <point x="263" y="32"/>
      <point x="307" y="182" type="curve"/>
      <point x="293" y="205" type="line"/>
      <point x="178" y="205" type="line"/>
      <point x="161" y="62"/>
      <point x="128" y="-94"/>
    </contour>
    <contour>
      <point x="211" y="874" type="curve" smooth="yes"/>
      <point x="254" y="874"/>
      <point x="289" y="905"/>
      <point x="289" y="981" type="curve" smooth="yes"/>
      <point x="289" y="1052"/>
      <point x="263" y="1087"/>
      <point x="211" y="1087" type="curve" smooth="yes"/>
      <point x="159" y="1087"/>
      <point x="133" y="1052"/>
      <point x="133" y="981" type="curve" smooth="yes"/>
      <point x="133" y="910"/>
      <point x="159" y="874"/>
    </contour>
  </outline>
</glyph>
<glyph name="F" format="1">
  <advance width="729"/>
  <unicode hex="0046"/>
  <outline>
    <contour>
      <point x="258" y="653" type="line"/>
      <point x="668" y="653" type="line"/>
      <point x="668" y="748" type="line"/>
      <point x="258" y="748" type="line"/>
      <point x="258" y="1368" type="line"/>
      <point x="692" y="1368" type="line"/>
      <point x="692" y="1462" type="line"/>
      <point x="160" y="1462" type="line"/>
      <point x="160" y="0" type="line"/>
      <point x="258" y="0" type="line"/>
    </contour>
    <contour>
      <point x="365" y="0" type="move" name="bottom"/>
    </contour>
    <contour>
      <point x="365" y="1462" type="move" name="top"/>
    </contour>
  </outline>
</glyph>
<glyph name="K" format="1">
  <advance width="825"/>
  <unicode hex="004B"/>
  <outline>
    <contour>
      <point x="430" y="819" type="line"/>
      <point x="797" y="1462" type="line"/>
      <point x="690" y="1462" type="line"/>
      <point x="414" y="970" type="line"/>
      <point x="329" y="817"/>
      <point x="277" y="723"/>
      <point x="258" y="688" type="curve"/>
      <point x="258" y="1462" type="line"/>
      <point x="160" y="1462" type="line"/>
      <point x="160" y="0" type="line"/>
      <point x="258" y="0" type="line"/>
      <point x="258" y="580" type="line"/>
      <point x="371" y="729" type="line"/>
      <point x="715" y="0" type="line"/>
      <point x="825" y="0" type="line"/>
    </contour>
    <contour>
      <point x="413" y="0" type="move" name="bottom"/>
    </contour>
    <contour>
      <point x="413" y="1462" type="move" name="top"/>
    </contour>
  </outline>
</glyph>
<glyph name="R" format="1">
  <advance width="870"/>
  <unicode hex="0052"/>
  <outline>
    <contour>
      <point x="160" y="0" type="line"/>
      <point x="258" y="0" type="line"/>
      <point x="258" y="639" type="line"/>
      <point x="444" y="639" type="line"/>
      <point x="717" y="0" type="line"/>
      <point x="827" y="0" type="line"/>
      <point x="537" y="662" type="line"/>
      <point x="706" y="727"/>
      <point x="772" y="856"/>
      <point x="772" y="1059" type="curve" smooth="yes"/>
      <point x="772" y="1327"/>
      <point x="645" y="1462"/>
      <point x="360" y="1462" type="curve" smooth="yes"/>
      <point x="160" y="1462" type="line"/>
    </contour>
    <contour>
      <point x="258" y="729" type="line"/>
      <point x="258" y="1366" type="line"/>
      <point x="367" y="1366" type="line" smooth="yes"/>
      <point x="578" y="1366"/>
      <point x="672" y="1275"/>
      <point x="672" y="1055" type="curve" smooth="yes"/>
      <point x="672" y="839"/>
      <point x="572" y="729"/>
      <point x="395" y="729" type="curve" smooth="yes"/>
    </contour>
    <contour>
      <point x="435" y="0" type="move" name="bottom"/>
    </contour>
    <contour>
      <point x="435" y="1462" type="move" name="top"/>
    </contour>
  </outline>
</glyph>
<glyph name="Y" format="1">
  <advance width="686"/>
  <unicode hex="0059"/>
  <outline>
    <contour>
      <point x="104" y="1462" type="line"/>
      <point x="0" y="1462" type="line"/>
      <point x="293" y="571" type="line"/>
      <point x="293" y="0" type="line"/>
      <point x="391" y="0" type="line"/>
      <point x="391" y="571" type="line"/>
      <point x="686" y="1462" type="line"/>
      <point x="582" y="1462" type="line"/>
      <point x="344" y="707" type="line"/>
    </contour>
    <contour>
      <point x="343" y="0" type="move" name="bottom"/>
    </contour>
    <contour>
      <point x="343" y="1462" type="move" name="top"/>
    </contour>
    <contour>
      <point x="20" y="1462" type="move" name="topleft"/>
    </contour>
  </outline>
</glyph>
<glyph name="backslash" format="1">
  <advance width="713"/>
  <unicode hex="005C"/>
  <note>
    backslash
  </note>
  <outline>
    <contour>
      <point x="573" y="0" type="line"/>
      <point x="674" y="0" type="line"/>
      <point x="147" y="1462" type="line"/>
      <point x="51" y="1462" type="line"/>
    </contour>
  </outline>
</glyph>
<glyph name="bracketright" format="1">
  <advance width="645"/>
  <unicode hex="005D"/>
  <note>
    bracketright
  </note>
  <outline>
    <contour>
      <point x="74" y="-324" type="line"/>
      <point x="471" y="-324" type="line"/>
      <point x="471" y="1462" type="line"/>
      <point x="74" y="1462" type="line"/>
      <point x="74" y="1372" type="line"/>
      <point x="377" y="1372" type="line"/>
      <point x="377" y="-233" type="line"/>
      <point x="74" y="-233" type="line"/>
    </contour>
  </outline>
</glyph>
<glyph name="b" format="1">
  <advance width="893"/>
  <unicode hex="0062"/>
  <outline>
    <contour>
      <point x="494" y="-20" type="curve" smooth="yes"/>
      <point x="691" y="-20"/>
      <point x="799" y="178"/>
      <point x="799" y="547" type="curve" smooth="yes"/>
      <point x="799" y="918"/>
      <point x="690" y="1104"/>
      <point x="486" y="1104" type="curve" smooth="yes"/>
      <point x="380" y="1104"/>
      <point x="304" y="1054"/>
      <point x="244" y="942" type="curve"/>
      <point x="236" y="942" type="line"/>
      <point x="239" y="986"/>
      <point x="240" y="1029"/>
      <point x="240" y="1073" type="curve" smooth="yes"/>
      <point x="240" y="1556" type="line"/>
      <point x="145" y="1556" type="line"/>
      <point x="145" y="0" type="line"/>
      <point x="223" y="0" type="line"/>
      <point x="236" y="150" type="line"/>
      <point x="244" y="150" type="line"/>
      <point x="300" y="38"/>
      <point x="387" y="-20"/>
    </contour>
    <contour>
      <point x="478" y="66" type="curve" smooth="yes"/>
      <point x="289" y="66"/>
      <point x="240" y="286"/>
      <point x="240" y="520" type="curve" smooth="yes"/>
      <point x="240" y="545" type="line" smooth="yes"/>
      <point x="240" y="801"/>
      <point x="276" y="1016"/>
      <point x="472" y="1016" type="curve" smooth="yes"/>
      <point x="633" y="1016"/>
      <point x="700" y="863"/>
      <point x="700" y="546" type="curve" smooth="yes"/>
      <point x="700" y="296"/>
      <point x="662" y="66"/>
    </contour>
    <contour>
      <point x="447" y="0" type="move" name="bottom"/>
    </contour>
    <contour>
      <point x="447" y="1085" type="move" name="top"/>
    </contour>
  </outline>
</glyph>
<glyph name="d" format="1">
  <advance width="893"/>
  <unicode hex="0064"/>
  <outline>
    <contour>
      <point x="410" y="-20" type="curve" smooth="yes"/>
      <point x="517" y="-20"/>
      <point x="601" y="41"/>
      <point x="653" y="152" type="curve"/>
      <point x="662" y="152" type="line"/>
      <point x="670" y="0" type="line"/>
      <point x="748" y="0" type="line"/>
      <point x="748" y="1556" type="line"/>
      <point x="653" y="1556" type="line"/>
      <point x="653" y="1069" type="line"/>
      <point x="654" y="1029"/>
      <point x="656" y="988"/>
      <point x="657" y="948" type="curve"/>
      <point x="649" y="948" type="line"/>
      <point x="597" y="1047"/>
      <point x="503" y="1106"/>
      <point x="406" y="1106" type="curve" smooth="yes"/>
      <point x="201" y="1106"/>
      <point x="94" y="909"/>
      <point x="94" y="541" type="curve" smooth="yes"/>
      <point x="94" y="167"/>
      <point x="199" y="-20"/>
    </contour>
    <contour>
      <point x="416" y="63" type="curve" smooth="yes"/>
      <point x="234" y="63"/>
      <point x="193" y="289"/>
      <point x="193" y="539" type="curve" smooth="yes"/>
      <point x="193" y="785"/>
      <point x="230" y="1016"/>
      <point x="412" y="1016" type="curve" smooth="yes"/>
      <point x="609" y="1016"/>
      <point x="653" y="798"/>
      <point x="653" y="541" type="curve" smooth="yes"/>
      <point x="653" y="479" type="line" smooth="yes"/>
      <point x="653" y="260"/>
      <point x="595" y="63"/>
    </contour>
    <contour>
      <point x="447" y="0" type="move" name="bottom"/>
    </contour>
    <contour>
      <point x="447" y="543" type="move" name="center"/>
    </contour>
    <contour>
      <point x="447" y="1085" type="move" name="top"/>
    </contour>
    <contour>
      <point x="873" y="1085" type="move" name="topright"/>
    </contour>
  </outline>
</glyph>
<glyph name="e" format="1">
  <advance width="803"/>
  <unicode hex="0065"/>
  <outline>
    <contour>
      <point x="453" y="-20" type="curve" smooth="yes"/>
      <point x="530" y="-20"/>
      <point x="603" y="2"/>
      <point x="672" y="45" type="curve"/>
      <point x="672" y="137" type="line"/>
      <point x="597" y="92"/>
      <point x="525" y="70"/>
      <point x="457" y="70" type="curve" smooth="yes"/>
      <point x="281" y="70"/>
      <point x="196" y="227"/>
      <point x="193" y="543" type="curve"/>
      <point x="707" y="543" type="line"/>
      <point x="707" y="631" type="line" smooth="yes"/>
      <point x="707" y="922"/>
      <point x="596" y="1106"/>
      <point x="416" y="1106" type="curve" smooth="yes"/>
      <point x="209" y="1106"/>
      <point x="96" y="906"/>
      <point x="96" y="535" type="curve" smooth="yes"/>
      <point x="96" y="186"/>
      <point x="224" y="-20"/>
    </contour>
    <contour>
      <point x="195" y="629" type="line"/>
      <point x="208" y="890"/>
      <point x="279" y="1020"/>
      <point x="410" y="1020" type="curve" smooth="yes"/>
      <point x="534" y="1020"/>
      <point x="612" y="868"/>
      <point x="612" y="629" type="curve"/>
    </contour>
    <contour>
      <point x="402" y="0" type="move" name="bottom"/>
    </contour>
    <contour>
      <point x="733" y="44" type="move" name="ogonek"/>
    </contour>
    <contour>
      <point x="402" y="1085" type="move" name="top"/>
    </contour>
  </outline>
</glyph>
<glyph name="m" format="1">
  <advance width="1303"/>
  <unicode hex="006D"/>
  <outline>
    <contour>
      <point x="145" y="0" type="line"/>
      <point x="240" y="0" type="line"/>
      <point x="240" y="596" type="line" smooth="yes"/>
      <point x="240" y="743"/>
      <point x="256" y="849"/>
      <point x="289" y="914" type="curve" smooth="yes"/>
      <point x="322" y="979"/>
      <point x="374" y="1012"/>
      <point x="446" y="1012" type="curve" smooth="yes"/>
      <point x="555" y="1012"/>
      <point x="606" y="923"/>
      <point x="606" y="739" type="curve" smooth="yes"/>
      <point x="606" y="0" type="line"/>
      <point x="700" y="0" type="line"/>
      <point x="700" y="635" type="line" smooth="yes"/>
      <point x="700" y="759"/>
      <point x="715" y="854"/>
      <point x="749" y="917" type="curve" smooth="yes"/>
      <point x="782" y="980"/>
      <point x="834" y="1012"/>
      <point x="907" y="1012" type="curve" smooth="yes"/>
      <point x="1014" y="1012"/>
      <point x="1067" y="921"/>
      <point x="1067" y="739" type="curve" smooth="yes"/>
      <point x="1067" y="0" type="line"/>
      <point x="1161" y="0" type="line"/>
      <point x="1161" y="709" type="line" smooth="yes"/>
      <point x="1161" y="986"/>
      <point x="1088" y="1106"/>
      <point x="924" y="1106" type="curve" smooth="yes"/>
      <point x="803" y="1106"/>
      <point x="732" y="1051"/>
      <point x="680" y="918" type="curve"/>
      <point x="679" y="918" type="line"/>
      <point x="648" y="1040"/>
      <point x="583" y="1106"/>
      <point x="463" y="1106" type="curve" smooth="yes"/>
      <point x="359" y="1106"/>
      <point x="285" y="1049"/>
      <point x="242" y="934" type="curve"/>
      <point x="233" y="934" type="line"/>
      <point x="225" y="1085" type="line"/>
      <point x="145" y="1085" type="line"/>
    </contour>
    <contour>
      <point x="652" y="0" type="move" name="bottom"/>
    </contour>
    <contour>
      <point x="652" y="1085" type="move" name="top"/>
    </contour>
  </outline>
</glyph>
<glyph name="n" format="1">
  <advance width="870"/>
  <unicode hex="006E"/>
  <outline>
    <contour>
      <point x="145" y="0" type="line"/>
      <point x="240" y="0" type="line"/>
      <point x="240" y="596" type="line" smooth="yes"/>
      <point x="240" y="749"/>
      <point x="260" y="857"/>
      <point x="301" y="925" type="curve" smooth="yes"/>
      <point x="340" y="988"/>
      <point x="397" y="1018"/>
      <point x="475" y="1018" type="curve" smooth="yes"/>
      <point x="582" y="1018"/>
      <point x="635" y="928"/>
      <point x="635" y="748" type="curve" smooth="yes"/>
      <point x="635" y="0" type="line"/>
      <point x="729" y="0" type="line"/>
      <point x="729" y="750" type="line" smooth="yes"/>
      <point x="729" y="999"/>
      <point x="645" y="1106"/>
      <point x="477" y="1106" type="curve" smooth="yes"/>
      <point x="380" y="1106"/>
      <point x="287" y="1043"/>
      <point x="242" y="934" type="curve"/>
      <point x="233" y="934" type="line"/>
      <point x="225" y="1085" type="line"/>
      <point x="145" y="1085" type="line"/>
    </contour>
    <contour>
      <point x="435" y="0" type="move" name="bottom"/>
    </contour>
    <contour>
      <point x="435" y="1085" type="move" name="top"/>
    </contour>
  </outline>
</glyph>
<glyph name="o" format="1">
  <advance width="850"/>
  <unicode hex="006F"/>
  <outline>
    <contour>
      <point x="422" y="-20" type="curve" smooth="yes"/>
      <point x="637" y="-20"/>
      <point x="756" y="180"/>
      <point x="756" y="545" type="curve" smooth="yes"/>
      <point x="756" y="901"/>
      <point x="634" y="1106"/>
      <point x="426" y="1106" type="curve" smooth="yes"/>
      <point x="205" y="1106"/>
      <point x="94" y="919"/>
      <point x="94" y="545" type="curve" smooth="yes"/>
      <point x="94" y="246"/>
      <point x="175" y="-20"/>
    </contour>
    <contour>
      <point x="424" y="70" type="curve" smooth="yes"/>
      <point x="339" y="70"/>
      <point x="280" y="116"/>
      <point x="242" y="207" type="curve" smooth="yes"/>
      <point x="209" y="286"/>
      <point x="193" y="399"/>
      <point x="193" y="545" type="curve" smooth="yes"/>
      <point x="193" y="686"/>
      <point x="207" y="795"/>
      <point x="237" y="873" type="curve" smooth="yes"/>
      <point x="273" y="968"/>
      <point x="334" y="1016"/>
      <point x="424" y="1016" type="curve" smooth="yes"/>
      <point x="494" y="1016"/>
      <point x="548" y="984"/>
      <point x="586" y="921" type="curve" smooth="yes"/>
      <point x="633" y="843"/>
      <point x="657" y="718"/>
      <point x="657" y="545" type="curve" smooth="yes"/>
      <point x="657" y="388"/>
      <point x="638" y="271"/>
      <point x="600" y="192" type="curve" smooth="yes"/>
      <point x="561" y="110"/>
      <point x="502" y="70"/>
    </contour>
    <contour>
      <point x="425" y="0" type="move" name="bottom"/>
    </contour>
    <contour>
      <point x="425" y="543" type="move" name="center"/>
    </contour>
    <contour>
      <point x="765" y="10" type="move" name="ogonek"/>
    </contour>
    <contour>
      <point x="425" y="1085" type="move" name="top"/>
    </contour>
    <contour>
      <point x="830" y="1085" type="move" name="topright"/>
    </contour>
  </outline>
</glyph>
<glyph name="q" format="1">
  <advance width="893"/>
  <unicode hex="0071"/>
  <outline>
    <contour>
      <point x="653" y="-492" type="line"/>
      <point x="748" y="-492" type="line"/>
      <point x="748" y="1085" type="line"/>
      <point x="672" y="1085" type="line"/>
      <point x="657" y="940" type="line"/>
      <point x="649" y="940" type="line"/>
      <point x="594" y="1051"/>
      <point x="514" y="1106"/>
      <point x="410" y="1106" type="curve" smooth="yes"/>
      <point x="213" y="1106"/>
      <point x="94" y="924"/>
      <point x="94" y="541" type="curve" smooth="yes"/>
      <point x="94" y="162"/>
      <point x="205" y="-20"/>
      <point x="406" y="-20" type="curve" smooth="yes"/>
      <point x="513" y="-20"/>
      <point x="596" y="39"/>
      <point x="653" y="158" type="curve"/>
      <point x="662" y="158" type="line"/>
      <point x="656" y="82"/>
      <point x="653" y="22"/>
      <point x="653" y="-23" type="curve" smooth="yes"/>
    </contour>
    <contour>
      <point x="420" y="66" type="curve" smooth="yes"/>
      <point x="231" y="66"/>
      <point x="193" y="282"/>
      <point x="193" y="539" type="curve" smooth="yes"/>
      <point x="193" y="848"/>
      <point x="256" y="1016"/>
      <point x="412" y="1016" type="curve" smooth="yes"/>
      <point x="494" y="1016"/>
      <point x="554" y="979"/>
      <point x="594" y="901" type="curve" smooth="yes"/>
      <point x="634" y="823"/>
      <point x="653" y="705"/>
      <point x="653" y="541" type="curve" smooth="yes"/>
      <point x="653" y="492" type="line" smooth="yes"/>
      <point x="653" y="369"/>
      <point x="637" y="272"/>
      <point x="606" y="202" type="curve" smooth="yes"/>
      <point x="566" y="112"/>
      <point x="503" y="66"/>
    </contour>
    <contour>
      <point x="447" y="0" type="move" name="bottom"/>
    </contour>
    <contour>
      <point x="447" y="1085" type="move" name="top"/>
    </contour>
  </outline>
</glyph>
<glyph name="u" format="1">
  <advance width="870"/>
  <unicode hex="0075"/>
  <outline>
    <contour>
      <point x="393" y="-20" type="curve" smooth="yes"/>
      <point x="490" y="-20"/>
      <point x="578" y="41"/>
      <point x="625" y="152" type="curve"/>
      <point x="633" y="152" type="line"/>
      <point x="645" y="0" type="line"/>
      <point x="725" y="0" type="line"/>
      <point x="725" y="1085" type="line"/>
      <point x="631" y="1085" type="line"/>
      <point x="631" y="489" type="line" smooth="yes"/>
      <point x="631" y="331"/>
      <point x="610" y="222"/>
      <point x="565" y="154" type="curve" smooth="yes"/>
      <point x="526" y="95"/>
      <point x="470" y="68"/>
      <point x="393" y="68" type="curve" smooth="yes"/>
      <point x="286" y="68"/>
      <point x="236" y="162"/>
      <point x="236" y="377" type="curve" smooth="yes"/>
      <point x="236" y="1085" type="line"/>
      <point x="141" y="1085" type="line"/>
      <point x="141" y="377" type="line" smooth="yes"/>
      <point x="141" y="96"/>
      <point x="218" y="-20"/>
    </contour>
    <contour>
      <point x="435" y="0" type="move" name="bottom"/>
    </contour>
    <contour>
      <point x="806" y="10" type="move" name="ogonek"/>
    </contour>
    <contour>
      <point x="435" y="1085" type="move" name="top"/>
    </contour>
    <contour>
      <point x="850" y="1085" type="move" name="topright"/>
    </contour>
  </outline>
</glyph>
<glyph name="z" format="1">
  <advance width="541"/>
  <unicode hex="007A"/>
  <outline>
    <contour>
      <point x="494" y="84" type="line"/>
      <point x="160" y="84" type="line"/>
      <point x="479" y="1008" type="line"/>
      <point x="479" y="1085" type="line"/>
      <point x="80" y="1085" type="line"/>
      <point x="80" y="1001" type="line"/>
      <point x="379" y="1001" type="line"/>
      <point x="59" y="76" type="line"/>
      <point x="59" y="0" type="line"/>
      <point x="494" y="0" type="line"/>
    </contour>
    <contour>
      <point x="271" y="0" type="move" name="bottom"/>
    </contour>
    <contour>
      <point x="271" y="1085" type="move" name="top"/>
    </contour>
  </outline>
</glyph>
<glyph name="cent" format="1">
  <advance width="819"/>
  <unicode hex="00A2"/>
  <note>
    cent
  </note>
  <outline>
    <contour>
      <point x="438" y="-20" type="line"/>
      <point x="520" y="-20" type="line"/>
      <point x="520" y="234" type="line"/>
      <point x="481" y="185" type="line"/>
      <point x="484" y="185" type="line"/>
      <point x="561" y="189"/>
      <point x="619" y="203"/>
      <point x="659" y="227" type="curve"/>
      <point x="659" y="311" type="line"/>
      <point x="604" y="290"/>
      <point x="553" y="279"/>
      <point x="506" y="279" type="curve" smooth="yes"/>
      <point x="445" y="279"/>
      <point x="396" y="302"/>
      <point x="359" y="347" type="curve" smooth="yes"/>
      <point x="298" y="421"/>
      <point x="268" y="555"/>
      <point x="268" y="748" type="curve" smooth="yes"/>
      <point x="268" y="931"/>
      <point x="293" y="1065"/>
      <point x="350" y="1142" type="curve" smooth="yes"/>
      <point x="387" y="1194"/>
      <point x="439" y="1221"/>
      <point x="506" y="1221" type="curve" smooth="yes"/>
      <point x="541" y="1221"/>
      <point x="582" y="1211"/>
      <point x="629" y="1192" type="curve"/>
      <point x="666" y="1278" type="line"/>
      <point x="620" y="1303"/>
      <point x="561" y="1315"/>
      <point x="487" y="1316" type="curve"/>
      <point x="483" y="1316" type="line"/>
      <point x="520" y="1269" type="line"/>
      <point x="520" y="1483" type="line"/>
      <point x="438" y="1483" type="line"/>
      <point x="438" y="1309" type="line"/>
      <point x="257" y="1272"/>
      <point x="168" y="1077"/>
      <point x="168" y="745" type="curve" smooth="yes"/>
      <point x="168" y="416"/>
      <point x="258" y="224"/>
      <point x="438" y="193" type="curve"/>
    </contour>
  </outline>
</glyph>
<glyph name="ordmasculine" format="1">
  <advance width="618"/>
  <unicode hex="00BA"/>
  <note>
    ordmasculine
  </note>
  <outline>
    <contour>
      <point x="549" y="1143" type="curve" smooth="yes"/>
      <point x="549" y="1371"/>
      <point x="462" y="1479"/>
      <point x="311" y="1479" type="curve" smooth="yes"/>
      <point x="159" y="1479"/>
      <point x="70" y="1356"/>
      <point x="70" y="1143" type="curve" smooth="yes"/>
      <point x="70" y="923"/>
      <point x="152" y="805"/>
      <point x="311" y="805" type="curve" smooth="yes"/>
      <point x="466" y="805"/>
      <point x="549" y="923"/>
    </contour>
    <contour>
      <point x="160" y="1143" type="curve" smooth="yes"/>
      <point x="160" y="1326"/>
      <point x="217" y="1405"/>
      <point x="309" y="1405" type="curve" smooth="yes"/>
      <point x="414" y="1405"/>
      <point x="459" y="1328"/>
      <point x="459" y="1143" type="curve" smooth="yes"/>
      <point x="459" y="958"/>
      <point x="418" y="879"/>
      <point x="309" y="879" type="curve" smooth="yes"/>
      <point x="206" y="879"/>
      <point x="160" y="958"/>
    </contour>
  </outline>
</glyph>
<glyph name="Thorn" format="1">
  <advance width="840"/>
  <unicode hex="00DE"/>
  <note>
    Thorn
  </note>
  <outline>
    <contour>
      <point x="160" y="0" type="line"/>
      <point x="258" y="0" type="line"/>
      <point x="258" y="334" type="line"/>
      <point x="365" y="334" type="line" smooth="yes"/>
      <point x="636" y="334"/>
      <point x="772" y="484"/>
      <point x="772" y="784" type="curve" smooth="yes"/>
      <point x="772" y="1064"/>
      <point x="645" y="1192"/>
      <point x="360" y="1192" type="curve" smooth="yes"/>
      <point x="258" y="1192" type="line"/>
      <point x="258" y="1462" type="line"/>
      <point x="160" y="1462" type="line"/>
    </contour>
    <contour>
      <point x="258" y="428" type="line"/>
      <point x="258" y="1096" type="line"/>
      <point x="367" y="1096" type="line" smooth="yes"/>
      <point x="583" y="1096"/>
      <point x="672" y="1003"/>
      <point x="672" y="772" type="curve" smooth="yes"/>
      <point x="672" y="520"/>
      <point x="583" y="428"/>
      <point x="356" y="428" type="curve" smooth="yes"/>
    </contour>
    <contour>
      <point x="420" y="0" type="move" name="bottom"/>
    </contour>
    <contour>
      <point x="420" y="1462" type="move" name="top"/>
    </contour>
  </outline>
</glyph>
<glyph name="thorn" format="1">
  <advance width="893"/>
  <unicode hex="00FE"/>
  <note>
    thorn
  </note>
  <outline>
    <contour>
      <point x="145" y="-492" type="line"/>
      <point x="244" y="-492" type="line"/>
      <point x="244" y="31" type="line" smooth="yes"/>
      <point x="244" y="71"/>
      <point x="239" y="110"/>
      <point x="233" y="150" type="curve"/>
      <point x="240" y="150" type="line"/>
      <point x="285" y="47"/>
      <point x="382" y="-20"/>
      <point x="494" y="-20" type="curve" smooth="yes"/>
      <point x="693" y="-20"/>
      <point x="799" y="184"/>
      <point x="799" y="545" type="curve" smooth="yes"/>
      <point x="799" y="919"/>
      <point x="693" y="1106"/>
      <point x="481" y="1106" type="curve" smooth="yes"/>
      <point x="382" y="1106"/>
      <point x="292" y="1044"/>
      <point x="240" y="936" type="curve"/>
      <point x="236" y="936" type="line"/>
      <point x="238" y="981"/>
      <point x="240" y="1027"/>
      <point x="240" y="1072" type="curve" smooth="yes"/>
      <point x="240" y="1556" type="line"/>
      <point x="145" y="1556" type="line"/>
    </contour>
    <contour>
      <point x="479" y="66" type="curve" smooth="yes"/>
      <point x="318" y="66"/>
      <point x="240" y="218"/>
      <point x="240" y="551" type="curve" smooth="yes"/>
      <point x="240" y="582" type="line" smooth="yes"/>
      <point x="240" y="819"/>
      <point x="286" y="1016"/>
      <point x="475" y="1016" type="curve" smooth="yes"/>
      <point x="663" y="1016"/>
      <point x="698" y="802"/>
      <point x="698" y="545" type="curve" smooth="yes"/>
      <point x="698" y="298"/>
      <point x="663" y="66"/>
    </contour>
    <contour>
      <point x="447" y="0" type="move" name="bottom"/>
    </contour>
    <contour>
      <point x="447" y="1085" type="move" name="top"/>
    </contour>
  </outline>
</glyph>
<glyph name="hbar" format="1">
  <advance width="870"/>
  <unicode hex="0127"/>
  <note>
    hbar
  </note>
  <outline>
    <contour>
      <point x="145" y="0" type="line"/>
      <point x="240" y="0" type="line"/>
      <point x="240" y="594" type="line" smooth="yes"/>
      <point x="240" y="724"/>
      <point x="256" y="830"/>
      <point x="290" y="901" type="curve" smooth="yes"/>
      <point x="328" y="980"/>
      <point x="390" y="1018"/>
      <point x="472" y="1018" type="curve" smooth="yes"/>
      <point x="587" y="1018"/>
      <point x="635" y="943"/>
      <point x="635" y="748" type="curve" smooth="yes"/>
      <point x="635" y="0" type="line"/>
      <point x="729" y="0" type="line"/>
      <point x="729" y="748" type="line" smooth="yes"/>
      <point x="729" y="974"/>
      <point x="659" y="1106"/>
      <point x="488" y="1106" type="curve" smooth="yes"/>
      <point x="367" y="1106"/>
      <point x="287" y="1039"/>
      <point x="244" y="936" type="curve"/>
      <point x="236" y="936" type="line"/>
      <point x="239" y="967"/>
      <point x="240" y="1005"/>
      <point x="240" y="1051" type="curve" smooth="yes"/>
      <point x="240" y="1270" type="line"/>
      <point x="502" y="1270" type="line"/>
      <point x="502" y="1354" type="line"/>
      <point x="240" y="1354" type="line"/>
      <point x="240" y="1556" type="line"/>
      <point x="145" y="1556" type="line"/>
      <point x="145" y="1354" type="line"/>
      <point x="27" y="1354" type="line"/>
      <point x="27" y="1270" type="line"/>
      <point x="145" y="1270" type="line"/>
    </contour>
  </outline>
</glyph>
<glyph name="Ldot" format="1">
  <advance width="711"/>
  <unicode hex="013F"/>
  <note>
    Ldot
  </note>
  <outline>
    <contour>
      <point x="670" y="0" type="line"/>
      <point x="670" y="94" type="line"/>
      <point x="258" y="94" type="line"/>
      <point x="258" y="1462" type="line"/>
      <point x="160" y="1462" type="line"/>
      <point x="160" y="0" type="line"/>
    </contour>
    <contour>
      <point x="500" y="707" type="curve" smooth="yes"/>
      <point x="500" y="650"/>
      <point x="527" y="613"/>
      <point x="566" y="613" type="curve" smooth="yes"/>
      <point x="602" y="613"/>
      <point x="625" y="650"/>
      <point x="625" y="707" type="curve" smooth="yes"/>
      <point x="625" y="767"/>
      <point x="602" y="802"/>
      <point x="566" y="802" type="curve" smooth="yes"/>
      <point x="527" y="802"/>
      <point x="500" y="767"/>
    </contour>
  </outline>
</glyph>
<glyph name="OE" format="1">
  <advance width="1233"/>
  <unicode hex="0152"/>
  <note>
    OE
  </note>
  <outline>
    <contour>
      <point x="586" y="-6" type="curve"/>
      <point x="628" y="-4"/>
      <point x="669" y="-2"/>
      <point x="711" y="0" type="curve"/>
      <point x="1135" y="0" type="line"/>
      <point x="1135" y="94" type="line"/>
      <point x="702" y="94" type="line"/>
      <point x="702" y="719" type="line"/>
      <point x="1110" y="719" type="line"/>
      <point x="1110" y="813" type="line"/>
      <point x="702" y="813" type="line"/>
      <point x="702" y="1368" type="line"/>
      <point x="1135" y="1368" type="line"/>
      <point x="1135" y="1462" type="line"/>
      <point x="709" y="1462" type="line"/>
      <point x="671" y="1464"/>
      <point x="632" y="1466"/>
      <point x="594" y="1468" type="curve"/>
      <point x="279" y="1468"/>
      <point x="111" y="1220"/>
      <point x="111" y="735" type="curve" smooth="yes"/>
      <point x="111" y="241"/>
      <point x="269" y="-6"/>
    </contour>
    <contour>
      <point x="599" y="88" type="curve" smooth="yes"/>
      <point x="331" y="90"/>
      <point x="215" y="283"/>
      <point x="215" y="733" type="curve" smooth="yes"/>
      <point x="215" y="1185"/>
      <point x="334" y="1372"/>
      <point x="599" y="1374" type="curve" smooth="yes"/>
      <point x="601" y="1374"/>
      <point x="602" y="1374"/>
      <point x="604" y="1374" type="curve"/>
      <point x="604" y="88" type="line"/>
      <point x="602" y="88"/>
      <point x="601" y="88"/>
    </contour>
    <contour>
      <point x="617" y="0" type="move" name="bottom"/>
    </contour>
    <contour>
      <point x="617" y="1462" type="move" name="top"/>
    </contour>
  </outline>
</glyph>
<glyph name="florin" format="1">
  <advance width="819"/>
  <unicode hex="0192"/>
  <note>
    florin
  </note>
  <outline>
    <contour>
      <point x="207" y="-492" type="curve" smooth="yes"/>
      <point x="382" y="-492"/>
      <point x="449" y="-376"/>
      <point x="449" y="-111" type="curve" smooth="yes"/>
      <point x="449" y="846" type="line"/>
      <point x="639" y="846" type="line"/>
      <point x="639" y="930" type="line"/>
      <point x="449" y="930" type="line"/>
      <point x="449" y="1110" type="line" smooth="yes"/>
      <point x="449" y="1178"/>
      <point x="453" y="1233"/>
      <point x="462" y="1274" type="curve" smooth="yes"/>
      <point x="479" y="1357"/>
      <point x="510" y="1391"/>
      <point x="578" y="1391" type="curve" smooth="yes"/>
      <point x="611" y="1391"/>
      <point x="648" y="1380"/>
      <point x="690" y="1358" type="curve"/>
      <point x="731" y="1444" type="line"/>
      <point x="676" y="1470"/>
      <point x="623" y="1483"/>
      <point x="573" y="1483" type="curve" smooth="yes"/>
      <point x="416" y="1483"/>
      <point x="354" y="1365"/>
      <point x="354" y="1126" type="curve" smooth="yes"/>
      <point x="354" y="938" type="line"/>
      <point x="193" y="899" type="line"/>
      <point x="193" y="846" type="line"/>
      <point x="354" y="846" type="line"/>
      <point x="354" y="-147" type="line" smooth="yes"/>
      <point x="354" y="-320"/>
      <point x="312" y="-403"/>
      <point x="201" y="-403" type="curve" smooth="yes"/>
      <point x="168" y="-403"/>
      <point x="128" y="-397"/>
      <point x="80" y="-385" type="curve"/>
      <point x="80" y="-479" type="line"/>
      <point x="120" y="-488"/>
      <point x="162" y="-492"/>
    </contour>
  </outline>
</glyph>
<glyph name="Ohorn" format="1">
  <advance width="1053"/>
  <unicode hex="01A0"/>
  <note>
    Ohorn
  </note>
  <outline>
    <contour>
      <point x="532" y="-20" type="curve" smooth="yes"/>
      <point x="805" y="-20"/>
      <point x="954" y="249"/>
      <point x="954" y="733" type="curve" smooth="yes"/>
      <point x="954" y="917"/>
      <point x="933" y="1069"/>
      <point x="891" y="1188" type="curve"/>
      <point x="1019" y="1228"/>
      <point x="1090" y="1335"/>
      <point x="1102" y="1530" type="curve"/>
      <point x="1085" y="1556" type="line"/>
      <point x="999" y="1556" type="line"/>
      <point x="996" y="1368"/>
      <point x="957" y="1287"/>
      <point x="858" y="1266" type="curve"/>
      <point x="785" y="1411"/>
      <point x="677" y="1483"/>
      <point x="535" y="1483" type="curve" smooth="yes"/>
      <point x="252" y="1483"/>
      <point x="111" y="1239"/>
      <point x="111" y="735" type="curve" smooth="yes"/>
      <point x="111" y="252"/>
      <point x="256" y="-20"/>
    </contour>
    <contour>
      <point x="532" y="74" type="curve" smooth="yes"/>
      <point x="324" y="74"/>
      <point x="213" y="298"/>
      <point x="213" y="733" type="curve" smooth="yes"/>
      <point x="213" y="1161"/>
      <point x="320" y="1389"/>
      <point x="535" y="1389" type="curve" smooth="yes"/>
      <point x="744" y="1389"/>
      <point x="852" y="1166"/>
      <point x="852" y="733" type="curve" smooth="yes"/>
      <point x="852" y="294"/>
      <point x="741" y="74"/>
    </contour>
    <contour>
      <point x="536" y="0" type="move" name="bottom"/>
    </contour>
    <contour>
      <point x="536" y="1462" type="move" name="top"/>
    </contour>
  </outline>
</glyph>
<glyph name="jdotless" format="1">
  <advance width="385"/>
  <unicode hex="0237"/>
  <note>
    uni0237
  </note>
  <outline>
    <contour>
      <point x="63" y="-492" type="curve" smooth="yes"/>
      <point x="184" y="-492"/>
      <point x="240" y="-400"/>
      <point x="240" y="-201" type="curve" smooth="yes"/>
      <point x="240" y="1085" type="line"/>
      <point x="145" y="1085" type="line"/>
      <point x="145" y="-215" type="line" smooth="yes"/>
      <point x="145" y="-278"/>
      <point x="139" y="-325"/>
      <point x="126" y="-355" type="curve" smooth="yes"/>
      <point x="113" y="-386"/>
      <point x="90" y="-401"/>
      <point x="59" y="-401" type="curve" smooth="yes"/>
      <point x="38" y="-401"/>
      <point x="17" y="-396"/>
      <point x="-4" y="-385" type="curve"/>
      <point x="-4" y="-475" type="line"/>
      <point x="13" y="-486"/>
      <point x="35" y="-492"/>
    </contour>
    <contour>
      <point x="193" y="0" type="move" name="bottom"/>
    </contour>
    <contour>
      <point x="193" y="1085" type="move" name="top"/>
    </contour>
  </outline>
</glyph>
<glyph name="lowringmod" format="1">
  <advance width="682"/>
  <unicode hex="02F3"/>
  <note>
    uni02F3
  </note>
  <outline>
    <contour>
      <point x="340" y="-506" type="curve" smooth="yes"/>
      <point x="461" y="-506"/>
      <point x="539" y="-434"/>
      <point x="539" y="-315" type="curve" smooth="yes"/>
      <point x="539" y="-204"/>
      <point x="456" y="-133"/>
      <point x="340" y="-133" type="curve" smooth="yes"/>
      <point x="217" y="-133"/>
      <point x="141" y="-206"/>
      <point x="141" y="-319" type="curve" smooth="yes"/>
      <point x="141" y="-434"/>
      <point x="216" y="-506"/>
    </contour>
    <contour>
      <point x="340" y="-436" type="curve" smooth="yes"/>
      <point x="260" y="-436"/>
      <point x="219" y="-390"/>
      <point x="219" y="-319" type="curve" smooth="yes"/>
      <point x="219" y="-251"/>
      <point x="268" y="-203"/>
      <point x="340" y="-203" type="curve" smooth="yes"/>
      <point x="419" y="-203"/>
      <point x="461" y="-251"/>
      <point x="461" y="-319" type="curve" smooth="yes"/>
      <point x="461" y="-390"/>
      <point x="412" y="-436"/>
    </contour>
    <contour>
      <point x="340" y="1" type="move" name="_bottom"/>
    </contour>
  </outline>
</glyph>
<glyph name="gravecomb" format="1">
  <advance width="0"/>
  <unicode hex="0300"/>
  <note>
    gravecomb
  </note>
  <outline>
    <contour>
      <point x="110" y="1241" type="curve"/>
      <point x="158" y="1241" type="line"/>
      <point x="158" y="1262" type="line"/>
      <point x="87" y="1350"/>
      <point x="3" y="1485"/>
      <point x="-33" y="1569" type="curve"/>
      <point x="-158" y="1569" type="line"/>
      <point x="-158" y="1552" type="line"/>
      <point x="-110" y="1461"/>
      <point x="23" y="1312"/>
    </contour>
    <contour>
      <point x="0" y="1085" type="move" name="_top"/>
    </contour>
    <contour>
      <point x="0" y="1569" type="move" name="top"/>
    </contour>
  </outline>
</glyph>
<glyph name="acutecomb" format="1">
  <advance width="0"/>
  <unicode hex="0301"/>
  <note>
    acutecomb
  </note>
  <outline>
    <contour>
      <point x="-614" y="1241" type="line"/>
      <point x="-567" y="1241" type="line"/>
      <point x="-472" y="1320"/>
      <point x="-350" y="1459"/>
      <point x="-298" y="1552" type="curve"/>
      <point x="-298" y="1569" type="line"/>
      <point x="-423" y="1569" type="line"/>
      <point x="-466" y="1475"/>
      <point x="-529" y="1373"/>
      <point x="-614" y="1262" type="curve"/>
    </contour>
    <contour>
      <point x="-546" y="1123" type="move" name="_top"/>
    </contour>
    <contour>
      <point x="-456" y="1569" type="move" name="top"/>
    </contour>
  </outline>
</glyph>
<glyph name="brevecomb" format="1">
  <advance width="1157"/>
  <unicode hex="0306"/>
  <note>
    breve
  </note>
  <outline>
    <contour>
      <point x="571" y="1245" type="curve" smooth="yes"/>
      <point x="710" y="1245"/>
      <point x="791" y="1334"/>
      <point x="795" y="1479" type="curve"/>
      <point x="723" y="1479" type="line"/>
      <point x="710" y="1379"/>
      <point x="660" y="1329"/>
      <point x="575" y="1329" type="curve" smooth="yes"/>
      <point x="491" y="1329"/>
      <point x="437" y="1380"/>
      <point x="428" y="1479" type="curve"/>
      <point x="360" y="1479" type="line"/>
      <point x="369" y="1323"/>
      <point x="439" y="1245"/>
    </contour>
    <contour>
      <point x="578" y="1085" type="move" name="_top"/>
    </contour>
    <contour>
      <point x="578" y="1479" type="move" name="top"/>
    </contour>
  </outline>
</glyph>
<glyph name="dotaccentcomb" format="1">
  <advance width="385"/>
  <unicode hex="0307"/>
  <note>
    dotaccent
  </note>
  <outline>
    <contour>
      <point x="197" y="1292" type="curve" smooth="yes"/>
      <point x="233" y="1292"/>
      <point x="256" y="1329"/>
      <point x="256" y="1386" type="curve" smooth="yes"/>
      <point x="256" y="1446"/>
      <point x="233" y="1481"/>
      <point x="197" y="1481" type="curve" smooth="yes"/>
      <point x="158" y="1481"/>
      <point x="131" y="1446"/>
      <point x="131" y="1386" type="curve" smooth="yes"/>
      <point x="131" y="1329"/>
      <point x="158" y="1292"/>
    </contour>
    <contour>
      <point x="194" y="1085" type="move" name="_top"/>
    </contour>
    <contour>
      <point x="194" y="1481" type="move" name="top"/>
    </contour>
  </outline>
</glyph>
<glyph name="dieresiscomb" format="1">
  <advance width="1126"/>
  <unicode hex="0308"/>
  <note>
    dieresis
  </note>
  <outline>
    <contour>
      <point x="715" y="1305" type="curve" smooth="yes"/>
      <point x="748" y="1305"/>
      <point x="778" y="1330"/>
      <point x="778" y="1389" type="curve" smooth="yes"/>
      <point x="778" y="1446"/>
      <point x="748" y="1470"/>
      <point x="715" y="1470" type="curve" smooth="yes"/>
      <point x="684" y="1470"/>
      <point x="653" y="1446"/>
      <point x="653" y="1389" type="curve" smooth="yes"/>
      <point x="653" y="1330"/>
      <point x="684" y="1305"/>
    </contour>
    <contour>
      <point x="412" y="1305" type="curve" smooth="yes"/>
      <point x="443" y="1305"/>
      <point x="473" y="1330"/>
      <point x="473" y="1389" type="curve" smooth="yes"/>
      <point x="473" y="1446"/>
      <point x="443" y="1470"/>
      <point x="412" y="1470" type="curve" smooth="yes"/>
      <point x="379" y="1470"/>
      <point x="348" y="1446"/>
      <point x="348" y="1389" type="curve" smooth="yes"/>
      <point x="348" y="1330"/>
      <point x="379" y="1305"/>
    </contour>
    <contour>
      <point x="563" y="1127" type="move" name="_top"/>
    </contour>
    <contour>
      <point x="563" y="1470" type="move" name="top"/>
    </contour>
  </outline>
</glyph>
<glyph name="hookabovecomb" format="1">
  <advance width="0"/>
  <unicode hex="0309"/>
  <note>
    hookabovecomb
  </note>
  <outline>
    <contour>
      <point x="-666" y="1208" type="line"/>
      <point x="-596" y="1208" type="line"/>
      <point x="-586" y="1329" type="line"/>
      <point x="-482" y="1354"/>
      <point x="-430" y="1412"/>
      <point x="-430" y="1505" type="curve" smooth="yes"/>
      <point x="-430" y="1616"/>
      <point x="-502" y="1675"/>
      <point x="-637" y="1675" type="curve" smooth="yes"/>
      <point x="-672" y="1675"/>
      <point x="-705" y="1671"/>
      <point x="-737" y="1663" type="curve"/>
      <point x="-737" y="1593" type="line"/>
      <point x="-707" y="1599"/>
      <point x="-679" y="1602"/>
      <point x="-653" y="1602" type="curve" smooth="yes"/>
      <point x="-562" y="1602"/>
      <point x="-516" y="1568"/>
      <point x="-516" y="1501" type="curve" smooth="yes"/>
      <point x="-516" y="1432"/>
      <point x="-584" y="1386"/>
      <point x="-672" y="1386" type="curve"/>
    </contour>
    <contour>
      <point x="-584" y="1085" type="move" name="_top"/>
    </contour>
    <contour>
      <point x="-584" y="1675" type="move" name="top"/>
    </contour>
  </outline>
</glyph>
<glyph name="ringcomb" format="1">
  <advance width="1182"/>
  <unicode hex="030A"/>
  <note>
    ring
  </note>
  <outline>
    <contour>
      <point x="592" y="1251" type="curve" smooth="yes"/>
      <point x="713" y="1251"/>
      <point x="791" y="1323"/>
      <point x="791" y="1442" type="curve" smooth="yes"/>
      <point x="791" y="1553"/>
      <point x="708" y="1624"/>
      <point x="592" y="1624" type="curve" smooth="yes"/>
      <point x="469" y="1624"/>
      <point x="393" y="1551"/>
      <point x="393" y="1438" type="curve" smooth="yes"/>
      <point x="393" y="1323"/>
      <point x="468" y="1251"/>
    </contour>
    <contour>
      <point x="592" y="1321" type="curve" smooth="yes"/>
      <point x="512" y="1321"/>
      <point x="471" y="1367"/>
      <point x="471" y="1438" type="curve" smooth="yes"/>
      <point x="471" y="1506"/>
      <point x="520" y="1554"/>
      <point x="592" y="1554" type="curve" smooth="yes"/>
      <point x="671" y="1554"/>
      <point x="713" y="1506"/>
      <point x="713" y="1438" type="curve" smooth="yes"/>
      <point x="713" y="1367"/>
      <point x="664" y="1321"/>
    </contour>
    <contour>
      <point x="592" y="1085" type="move" name="_top"/>
    </contour>
    <contour>
      <point x="592" y="1624" type="move" name="top"/>
    </contour>
  </outline>
</glyph>
<glyph name="hungarumlautcomb" format="1">
  <advance width="1161"/>
  <unicode hex="030B"/>
  <note>
    hungarumlaut
  </note>
  <outline>
    <contour>
      <point x="555" y="1241" type="line"/>
      <point x="602" y="1241" type="line"/>
      <point x="683" y="1314"/>
      <point x="793" y="1455"/>
      <point x="844" y="1552" type="curve"/>
      <point x="844" y="1569" type="line"/>
      <point x="725" y="1569" type="line"/>
      <point x="686" y="1480"/>
      <point x="615" y="1341"/>
      <point x="555" y="1262" type="curve"/>
    </contour>
    <contour>
      <point x="289" y="1241" type="line"/>
      <point x="336" y="1241" type="line"/>
      <point x="421" y="1317"/>
      <point x="522" y="1452"/>
      <point x="578" y="1552" type="curve"/>
      <point x="578" y="1569" type="line"/>
      <point x="459" y="1569" type="line"/>
      <point x="420" y="1480"/>
      <point x="349" y="1341"/>
      <point x="289" y="1262" type="curve"/>
    </contour>
    <contour>
      <point x="567" y="1085" type="move" name="_top"/>
    </contour>
    <contour>
      <point x="567" y="1569" type="move" name="top"/>
    </contour>
  </outline>
</glyph>
<glyph name="caroncomb" format="1">
  <advance width="1157"/>
  <unicode hex="030C"/>
  <note>
    caron
  </note>
  <outline>
    <contour>
      <point x="528" y="1241" type="curve"/>
      <point x="623" y="1241" type="line"/>
      <point x="634" y="1266"/>
      <point x="651" y="1299"/>
      <point x="672" y="1335" type="curve" smooth="yes"/>
      <point x="711" y="1404"/>
      <point x="763" y="1485"/>
      <point x="813" y="1550" type="curve"/>
      <point x="813" y="1569" type="line"/>
      <point x="766" y="1569" type="line"/>
      <point x="724" y="1530"/>
      <point x="632" y="1421"/>
      <point x="578" y="1356" type="curve"/>
      <point x="458" y="1497"/>
      <point x="452" y="1504"/>
      <point x="385" y="1569" type="curve"/>
      <point x="342" y="1569" type="line"/>
      <point x="342" y="1550" type="line"/>
      <point x="395" y="1476"/>
      <point x="441" y="1404"/>
      <point x="480" y="1334" type="curve" smooth="yes"/>
      <point x="497" y="1303"/>
      <point x="513" y="1272"/>
    </contour>
    <contour>
      <point x="578" y="1085" type="move" name="_top"/>
    </contour>
    <contour>
      <point x="578" y="1569" type="move" name="top"/>
    </contour>
  </outline>
</glyph>
<glyph name="dblgravecomb" format="1">
  <advance width="0"/>
  <unicode hex="030F"/>
  <note>
    uni030F
  </note>
  <outline>
    <contour>
      <point x="-444" y="1241" type="curve"/>
      <point x="-397" y="1241" type="line"/>
      <point x="-397" y="1262" type="line"/>
      <point x="-444" y="1321"/>
      <point x="-516" y="1449"/>
      <point x="-567" y="1569" type="curve"/>
      <point x="-686" y="1569" type="line"/>
      <point x="-686" y="1552" type="line"/>
      <point x="-631" y="1451"/>
      <point x="-517" y="1304"/>
    </contour>
    <contour>
      <point x="-711" y="1241" type="curve"/>
      <point x="-664" y="1241" type="line"/>
      <point x="-664" y="1262" type="line"/>
      <point x="-715" y="1330"/>
      <point x="-772" y="1432"/>
      <point x="-834" y="1569" type="curve"/>
      <point x="-952" y="1569" type="line"/>
      <point x="-952" y="1552" type="line"/>
      <point x="-900" y="1453"/>
      <point x="-787" y="1309"/>
    </contour>
    <contour>
      <point x="-675" y="1085" type="move" name="_top"/>
    </contour>
    <contour>
      <point x="-675" y="1569" type="move" name="top"/>
    </contour>
  </outline>
</glyph>
<glyph name="commaturnedabovecomb" format="1">
  <advance width="600"/>
  <unicode hex="0312"/>
  <outline>
    <contour>
      <point x="323" y="1241" type="line"/>
      <point x="429" y="1241" type="line"/>
      <point x="440" y="1337"/>
      <point x="496" y="1500"/>
      <point x="528" y="1548" type="curve"/>
      <point x="528" y="1569" type="line"/>
      <point x="485" y="1569" type="line"/>
      <point x="413" y="1505"/>
      <point x="339" y="1347"/>
      <point x="323" y="1262" type="curve"/>
    </contour>
    <contour>
      <point x="426" y="1085" type="move" name="_top"/>
    </contour>
    <contour>
      <point x="426" y="1569" type="move" name="top"/>
    </contour>
  </outline>
</glyph>
<glyph name="dotbelowcomb" format="1">
  <advance width="0"/>
  <unicode hex="0323"/>
  <note>
    dotbelowcomb
  </note>
  <outline>
    <contour>
      <point x="3" y="-319" type="curve" smooth="yes"/>
      <point x="40" y="-319"/>
      <point x="63" y="-284"/>
      <point x="63" y="-225" type="curve" smooth="yes"/>
      <point x="63" y="-165"/>
      <point x="40" y="-131"/>
      <point x="3" y="-131" type="curve" smooth="yes"/>
      <point x="-37" y="-131"/>
      <point x="-63" y="-165"/>
      <point x="-63" y="-225" type="curve" smooth="yes"/>
      <point x="-63" y="-284"/>
      <point x="-37" y="-319"/>
    </contour>
    <contour>
      <point x="-1" y="0" type="move" name="_bottom"/>
    </contour>
    <contour>
      <point x="-1" y="-319" type="move" name="bottom"/>
    </contour>
  </outline>
</glyph>
<glyph name="cedillacomb" format="1">
  <advance width="465"/>
  <unicode hex="0327"/>
  <note>
    cedilla
  </note>
  <outline>
    <contour>
      <point x="145" y="-492" type="curve" smooth="yes"/>
      <point x="290" y="-492"/>
      <point x="379" y="-424"/>
      <point x="379" y="-291" type="curve" smooth="yes"/>
      <point x="379" y="-200"/>
      <point x="326" y="-141"/>
      <point x="219" y="-115" type="curve"/>
      <point x="270" y="0" type="line"/>
      <point x="195" y="0" type="line"/>
      <point x="123" y="-160" type="line"/>
      <point x="227" y="-176"/>
      <point x="289" y="-213"/>
      <point x="289" y="-293" type="curve" smooth="yes"/>
      <point x="289" y="-365"/>
      <point x="241" y="-414"/>
      <point x="137" y="-414" type="curve" smooth="yes"/>
      <point x="106" y="-414"/>
      <point x="80" y="-410"/>
      <point x="59" y="-403" type="curve"/>
      <point x="59" y="-481" type="line"/>
      <point x="75" y="-488"/>
      <point x="104" y="-492"/>
    </contour>
    <contour>
      <point x="219" y="0" type="move" name="_bottom"/>
    </contour>
    <contour>
      <point x="219" y="-492" type="move" name="bottom"/>
    </contour>
  </outline>
</glyph>
<glyph name="ogonekcomb" format="1">
  <advance width="383"/>
  <unicode hex="0328"/>
  <note>
    ogonek
  </note>
  <outline>
    <contour>
      <point x="236" y="-446" type="curve" smooth="yes"/>
      <point x="266" y="-446"/>
      <point x="291" y="-442"/>
      <point x="311" y="-434" type="curve"/>
      <point x="311" y="-360" type="line"/>
      <point x="299" y="-366"/>
      <point x="280" y="-369"/>
      <point x="254" y="-369" type="curve" smooth="yes"/>
      <point x="190" y="-369"/>
      <point x="158" y="-333"/>
      <point x="158" y="-260" type="curve" smooth="yes"/>
      <point x="158" y="-173"/>
      <point x="194" y="-95"/>
      <point x="289" y="0" type="curve"/>
      <point x="215" y="0" type="line"/>
      <point x="134" y="-61"/>
      <point x="68" y="-171"/>
      <point x="68" y="-270" type="curve" smooth="yes"/>
      <point x="68" y="-387"/>
      <point x="124" y="-446"/>
    </contour>
    <contour>
      <point x="375" y="10" type="move" name="_ogonek"/>
    </contour>
  </outline>
</glyph>
<glyph name="tonos" format="1">
  <advance width="1182"/>
  <unicode hex="0384"/>
  <note>
    tonos
  </note>
  <outline>
    <contour>
      <point x="537" y="1241" type="line"/>
      <point x="592" y="1241" type="line"/>
      <point x="648" y="1349"/>
      <point x="712" y="1498"/>
      <point x="743" y="1589" type="curve"/>
      <point x="743" y="1610" type="line"/>
      <point x="633" y="1610" type="line"/>
      <point x="620" y="1537"/>
      <point x="569" y="1350"/>
      <point x="537" y="1262" type="curve"/>
    </contour>
    <contour>
      <point x="590" y="1085" type="move" name="_top"/>
    </contour>
    <contour>
      <point x="842.389" y="1556" type="move" name="_topleft"/>
    </contour>
  </outline>
</glyph>
<glyph name="Theta" format="1">
  <advance width="1065"/>
  <unicode hex="0398"/>
  <note>
    Theta
  </note>
  <outline>
    <contour>
      <point x="532" y="-20" type="curve" smooth="yes"/>
      <point x="805" y="-20"/>
      <point x="954" y="249"/>
      <point x="954" y="733" type="curve" smooth="yes"/>
      <point x="954" y="1214"/>
      <point x="807" y="1483"/>
      <point x="535" y="1483" type="curve" smooth="yes"/>
      <point x="252" y="1483"/>
      <point x="111" y="1239"/>
      <point x="111" y="735" type="curve" smooth="yes"/>
      <point x="111" y="252"/>
      <point x="256" y="-20"/>
    </contour>
    <contour>
      <point x="532" y="74" type="curve" smooth="yes"/>
      <point x="324" y="74"/>
      <point x="213" y="298"/>
      <point x="213" y="733" type="curve" smooth="yes"/>
      <point x="213" y="1161"/>
      <point x="320" y="1389"/>
      <point x="535" y="1389" type="curve" smooth="yes"/>
      <point x="744" y="1389"/>
      <point x="852" y="1166"/>
      <point x="852" y="733" type="curve" smooth="yes"/>
      <point x="852" y="294"/>
      <point x="741" y="74"/>
    </contour>
    <contour>
      <point x="340" y="698" type="line"/>
      <point x="725" y="698" type="line"/>
      <point x="725" y="793" type="line"/>
      <point x="340" y="793" type="line"/>
    </contour>
  </outline>
</glyph>
<glyph name="Sigma" format="1">
  <advance width="754"/>
  <unicode hex="03A3"/>
  <note>
    Sigma
  </note>
  <outline>
    <contour>
      <point x="61" y="0" type="line"/>
      <point x="709" y="0" type="line"/>
      <point x="709" y="94" type="line"/>
      <point x="311" y="94" type="line"/>
      <point x="264" y="94"/>
      <point x="217" y="94"/>
      <point x="170" y="94" type="curve"/>
      <point x="512" y="760" type="line"/>
      <point x="186" y="1368" type="line"/>
      <point x="228" y="1368"/>
      <point x="271" y="1368"/>
      <point x="313" y="1368" type="curve"/>
      <point x="678" y="1368" type="line"/>
      <point x="678" y="1462" type="line"/>
      <point x="74" y="1462" type="line"/>
      <point x="74" y="1380" type="line"/>
      <point x="401" y="760" type="line"/>
      <point x="61" y="84" type="line"/>
    </contour>
  </outline>
</glyph>
<glyph name="Upsilon" format="1">
  <advance width="686"/>
  <unicode hex="03A5"/>
  <note>
    Upsilon
  </note>
  <outline>
    <contour>
      <point x="293" y="0" type="line"/>
      <point x="391" y="0" type="line"/>
      <point x="391" y="571" type="line"/>
      <point x="686" y="1462" type="line"/>
      <point x="582" y="1462" type="line"/>
      <point x="344" y="707" type="line"/>
      <point x="104" y="1462" type="line"/>
      <point x="0" y="1462" type="line"/>
      <point x="293" y="571" type="line"/>
    </contour>
    <contour>
      <point x="343" y="1462" type="move" name="top"/>
    </contour>
    <contour>
      <point x="70" y="1461" type="move" name="topleft"/>
    </contour>
  </outline>
</glyph>
<glyph name="alpha" format="1">
  <advance width="907"/>
  <unicode hex="03B1"/>
  <note>
    alpha
  </note>
  <outline>
    <contour>
      <point x="408" y="-20" type="curve" smooth="yes"/>
      <point x="512" y="-20"/>
      <point x="603" y="43"/>
      <point x="655" y="156" type="curve"/>
      <point x="664" y="156" type="line"/>
      <point x="676" y="29"/>
      <point x="727" y="-20"/>
      <point x="823" y="-20" type="curve" smooth="yes"/>
      <point x="851" y="-20"/>
      <point x="874" y="-15"/>
      <point x="891" y="-4" type="curve"/>
      <point x="891" y="70" type="line"/>
      <point x="872" y="61"/>
      <point x="850" y="57"/>
      <point x="827" y="57" type="curve" smooth="yes"/>
      <point x="776" y="57"/>
      <point x="750" y="109"/>
      <point x="750" y="213" type="curve" smooth="yes"/>
      <point x="750" y="737" type="line" smooth="yes"/>
      <point x="750" y="901"/>
      <point x="761" y="1017"/>
      <point x="784" y="1085" type="curve"/>
      <point x="719" y="1085" type="line"/>
      <point x="696" y="1044"/>
      <point x="676" y="974"/>
      <point x="672" y="926" type="curve"/>
      <point x="664" y="926" type="line"/>
      <point x="606" y="1046"/>
      <point x="522" y="1106"/>
      <point x="412" y="1106" type="curve" smooth="yes"/>
      <point x="215" y="1106"/>
      <point x="96" y="924"/>
      <point x="96" y="541" type="curve" smooth="yes"/>
      <point x="96" y="162"/>
      <point x="207" y="-20"/>
    </contour>
    <contour>
      <point x="422" y="66" type="curve" smooth="yes"/>
      <point x="343" y="66"/>
      <point x="286" y="103"/>
      <point x="250" y="178" type="curve" smooth="yes"/>
      <point x="213" y="253"/>
      <point x="195" y="373"/>
      <point x="195" y="539" type="curve" smooth="yes"/>
      <point x="195" y="727"/>
      <point x="218" y="863"/>
      <point x="272" y="940" type="curve" smooth="yes"/>
      <point x="306" y="990"/>
      <point x="353" y="1016"/>
      <point x="414" y="1016" type="curve" smooth="yes"/>
      <point x="479" y="1016"/>
      <point x="531" y="993"/>
      <point x="569" y="943" type="curve" smooth="yes"/>
      <point x="627" y="870"/>
      <point x="655" y="738"/>
      <point x="655" y="541" type="curve" smooth="yes"/>
      <point x="655" y="514" type="line" smooth="yes"/>
      <point x="655" y="346"/>
      <point x="627" y="220"/>
      <point x="572" y="145" type="curve" smooth="yes"/>
      <point x="534" y="93"/>
      <point x="484" y="66"/>
    </contour>
    <contour>
      <point x="454" y="1085" type="move" name="top"/>
    </contour>
  </outline>
</glyph>
<glyph name="kappa" format="1">
  <advance width="711"/>
  <unicode hex="03BA"/>
  <note>
    kappa
  </note>
  <outline>
    <contour>
      <point x="145" y="0" type="line"/>
      <point x="240" y="0" type="line"/>
      <point x="240" y="440" type="line"/>
      <point x="360" y="598" type="line"/>
      <point x="596" y="0" type="line"/>
      <point x="696" y="0" type="line"/>
      <point x="424" y="686" type="line"/>
      <point x="674" y="1085" type="line"/>
      <point x="571" y="1085" type="line"/>
      <point x="285" y="617" type="line"/>
      <point x="271" y="592"/>
      <point x="257" y="566"/>
      <point x="242" y="537" type="curve"/>
      <point x="233" y="537" type="line"/>
      <point x="238" y="587"/>
      <point x="240" y="648"/>
      <point x="240" y="719" type="curve" smooth="yes"/>
      <point x="240" y="1085" type="line"/>
      <point x="145" y="1085" type="line"/>
    </contour>
  </outline>
</glyph>
<glyph name="nu" format="1">
  <advance width="723"/>
  <unicode hex="03BD"/>
  <note>
    nu
  </note>
  <outline>
    <contour>
      <point x="260" y="0" type="line"/>
      <point x="348" y="0" type="line"/>
      <point x="568" y="323"/>
      <point x="666" y="652"/>
      <point x="666" y="1085" type="curve"/>
      <point x="571" y="1085" type="line"/>
      <point x="571" y="697"/>
      <point x="490" y="372"/>
      <point x="328" y="109" type="curve"/>
      <point x="319" y="109" type="line"/>
      <point x="312" y="173"/>
      <point x="295" y="268"/>
      <point x="269" y="393" type="curve" smooth="yes"/>
      <point x="127" y="1085" type="line"/>
      <point x="31" y="1085" type="line"/>
    </contour>
  </outline>
</glyph>
<glyph name="Dje-cy" format="1">
  <advance width="930"/>
  <unicode hex="0402"/>
  <note>
    afii10051
  </note>
  <outline>
    <contour>
      <point x="582" y="-20" type="curve" smooth="yes"/>
      <point x="730" y="-20"/>
      <point x="815" y="95"/>
      <point x="815" y="299" type="curve" smooth="yes"/>
      <point x="815" y="543" type="line" smooth="yes"/>
      <point x="815" y="774"/>
      <point x="708" y="877"/>
      <point x="483" y="877" type="curve" smooth="yes"/>
      <point x="352" y="877" type="line"/>
      <point x="352" y="1368" type="line"/>
      <point x="631" y="1368" type="line"/>
      <point x="631" y="1462" type="line"/>
      <point x="14" y="1462" type="line"/>
      <point x="14" y="1368" type="line"/>
      <point x="254" y="1368" type="line"/>
      <point x="254" y="0" type="line"/>
      <point x="352" y="0" type="line"/>
      <point x="352" y="782" type="line"/>
      <point x="487" y="782" type="line" smooth="yes"/>
      <point x="650" y="782"/>
      <point x="717" y="710"/>
      <point x="717" y="543" type="curve" smooth="yes"/>
      <point x="717" y="303" type="line" smooth="yes"/>
      <point x="717" y="146"/>
      <point x="672" y="74"/>
      <point x="580" y="74" type="curve" smooth="yes"/>
      <point x="549" y="74"/>
      <point x="518" y="81"/>
      <point x="485" y="94" type="curve"/>
      <point x="485" y="0" type="line"/>
      <point x="513" y="-13"/>
      <point x="545" y="-20"/>
    </contour>
  </outline>
</glyph>
<glyph name="Ie-cy" format="1">
  <advance width="788"/>
  <unicode hex="0415"/>
  <note>
    afii10022
  </note>
  <outline>
    <component base="E"/>
    <contour>
      <point x="418" y="1462" type="move" name="top"/>
    </contour>
  </outline>
</glyph>
<glyph name="Pe-cy" format="1">
  <advance width="1026"/>
  <unicode hex="041F"/>
  <note>
    afii10033
  </note>
  <outline>
    <contour>
      <point x="160" y="0" type="line"/>
      <point x="258" y="0" type="line"/>
      <point x="258" y="1368" type="line"/>
      <point x="768" y="1368" type="line"/>
      <point x="768" y="0" type="line"/>
      <point x="866" y="0" type="line"/>
      <point x="866" y="1462" type="line"/>
      <point x="160" y="1462" type="line"/>
    </contour>
    <contour>
      <point x="1006" y="0" type="move" name="bottomright"/>
    </contour>
  </outline>
</glyph>
<glyph name="Tse-cy" format="1">
  <advance width="1032"/>
  <unicode hex="0426"/>
  <note>
    afii10040
  </note>
  <outline>
    <contour>
      <point x="866" y="1462" type="line"/>
      <point x="768" y="1462" type="line"/>
      <point x="768" y="94" type="line"/>
      <point x="258" y="94" type="line"/>
      <point x="258" y="1462" type="line"/>
      <point x="160" y="1462" type="line"/>
      <point x="160" y="0" type="line"/>
      <point x="883" y="0" type="line"/>
      <point x="883" y="-369" type="line"/>
      <point x="977" y="-369" type="line"/>
      <point x="977" y="94" type="line"/>
      <point x="866" y="94" type="line"/>
    </contour>
  </outline>
</glyph>
<glyph name="Sha-cy" format="1">
  <advance width="1407"/>
  <unicode hex="0428"/>
  <note>
    afii10042
  </note>
  <outline>
    <contour>
      <point x="752" y="1462" type="line"/>
      <point x="653" y="1462" type="line"/>
      <point x="653" y="94" type="line"/>
      <point x="258" y="94" type="line"/>
      <point x="258" y="1462" type="line"/>
      <point x="160" y="1462" type="line"/>
      <point x="160" y="0" type="line"/>
      <point x="1247" y="0" type="line"/>
      <point x="1247" y="1462" type="line"/>
      <point x="1149" y="1462" type="line"/>
      <point x="1149" y="94" type="line"/>
      <point x="752" y="94" type="line"/>
    </contour>
  </outline>
</glyph>
<glyph name="Ereversed-cy" format="1">
  <advance width="860"/>
  <unicode hex="042D"/>
  <note>
    afii10047
  </note>
  <outline>
    <contour>
      <point x="285" y="-20" type="curve" smooth="yes"/>
      <point x="573" y="-20"/>
      <point x="750" y="268"/>
      <point x="750" y="729" type="curve" smooth="yes"/>
      <point x="750" y="883"/>
      <point x="731" y="1017"/>
      <point x="694" y="1132" type="curve" smooth="yes"/>
      <point x="618" y="1360"/>
      <point x="471" y="1485"/>
      <point x="283" y="1485" type="curve" smooth="yes"/>
      <point x="197" y="1485"/>
      <point x="120" y="1464"/>
      <point x="51" y="1421" type="curve"/>
      <point x="96" y="1337" type="line"/>
      <point x="152" y="1373"/>
      <point x="214" y="1391"/>
      <point x="283" y="1391" type="curve" smooth="yes"/>
      <point x="490" y="1391"/>
      <point x="626" y="1176"/>
      <point x="645" y="813" type="curve"/>
      <point x="186" y="813" type="line"/>
      <point x="186" y="719" type="line"/>
      <point x="647" y="719" type="line"/>
      <point x="642" y="314"/>
      <point x="506" y="74"/>
      <point x="287" y="74" type="curve" smooth="yes"/>
      <point x="206" y="74"/>
      <point x="138" y="88"/>
      <point x="82" y="115" type="curve"/>
      <point x="82" y="20" type="line"/>
      <point x="123" y="-4"/>
      <point x="205" y="-20"/>
    </contour>
    <contour>
      <point x="430" y="1462" type="move" name="top"/>
    </contour>
  </outline>
</glyph>
<glyph name="ii-cy" format="1">
  <advance width="883"/>
  <unicode hex="0438"/>
  <note>
    afii10074
  </note>
  <outline>
    <contour>
      <point x="145" y="0" type="line"/>
      <point x="262" y="0" type="line"/>
      <point x="647" y="938" type="line"/>
      <point x="646" y="859"/>
      <point x="644" y="781"/>
      <point x="643" y="702" type="curve"/>
      <point x="643" y="0" type="line"/>
      <point x="737" y="0" type="line"/>
      <point x="737" y="1085" type="line"/>
      <point x="618" y="1085" type="line"/>
      <point x="233" y="147" type="line"/>
      <point x="235" y="215"/>
      <point x="238" y="284"/>
      <point x="240" y="352" type="curve"/>
      <point x="240" y="1085" type="line"/>
      <point x="145" y="1085" type="line"/>
    </contour>
    <contour>
      <point x="863" y="0" type="move" name="bottomright"/>
    </contour>
    <contour>
      <point x="442" y="1085" type="move" name="top"/>
    </contour>
  </outline>
</glyph>
<glyph name="pe-cy" format="1">
  <advance width="883"/>
  <unicode hex="043F"/>
  <note>
    afii10081
  </note>
  <outline>
    <contour>
      <point x="145" y="0" type="line"/>
      <point x="240" y="0" type="line"/>
      <point x="240" y="999" type="line"/>
      <point x="643" y="999" type="line"/>
      <point x="643" y="0" type="line"/>
      <point x="737" y="0" type="line"/>
      <point x="737" y="1085" type="line"/>
      <point x="145" y="1085" type="line"/>
    </contour>
    <contour>
      <point x="863" y="0" type="move" name="bottomright"/>
    </contour>
  </outline>
</glyph>
<glyph name="te-cy" format="1">
  <advance width="512"/>
  <unicode hex="0442"/>
  <note>
    afii10084
  </note>
  <outline>
    <contour>
      <point x="209" y="0" type="line"/>
      <point x="303" y="0" type="line"/>
      <point x="303" y="999" type="line"/>
      <point x="496" y="999" type="line"/>
      <point x="496" y="1085" type="line"/>
      <point x="16" y="1085" type="line"/>
      <point x="16" y="999" type="line"/>
      <point x="209" y="999" type="line"/>
    </contour>
    <contour>
      <point x="492" y="0" type="move" name="bottomright"/>
    </contour>
  </outline>
</glyph>
<glyph name="ef-cy" format="1">
  <advance width="997"/>
  <unicode hex="0444"/>
  <note>
    afii10086
  </note>
  <outline>
    <contour>
      <point x="453" y="-492" type="line"/>
      <point x="547" y="-492" type="line"/>
      <point x="547" y="-20" type="line"/>
      <point x="775" y="5"/>
      <point x="903" y="212"/>
      <point x="903" y="545" type="curve" smooth="yes"/>
      <point x="903" y="877"/>
      <point x="776" y="1082"/>
      <point x="547" y="1106" type="curve"/>
      <point x="547" y="1556" type="line"/>
      <point x="453" y="1556" type="line"/>
      <point x="453" y="1106" type="line"/>
      <point x="222" y="1082"/>
      <point x="96" y="877"/>
      <point x="96" y="545" type="curve" smooth="yes"/>
      <point x="96" y="197"/>
      <point x="224" y="0"/>
      <point x="453" y="-20" type="curve"/>
    </contour>
    <contour>
      <point x="453" y="66" type="line"/>
      <point x="292" y="86"/>
      <point x="195" y="261"/>
      <point x="195" y="545" type="curve" smooth="yes"/>
      <point x="195" y="829"/>
      <point x="284" y="997"/>
      <point x="453" y="1020" type="curve"/>
    </contour>
    <contour>
      <point x="547" y="66" type="curve"/>
      <point x="547" y="1020" type="line"/>
      <point x="711" y="996"/>
      <point x="805" y="825"/>
      <point x="805" y="545" type="curve" smooth="yes"/>
      <point x="805" y="266"/>
      <point x="710" y="89"/>
    </contour>
  </outline>
</glyph>
<glyph name="hardsign-cy" format="1">
  <advance width="889"/>
  <unicode hex="044A"/>
  <note>
    afii10092
  </note>
  <outline>
    <contour>
      <point x="250" y="0" type="line"/>
      <point x="483" y="0" type="line" smooth="yes"/>
      <point x="691" y="0"/>
      <point x="811" y="112"/>
      <point x="811" y="305" type="curve" smooth="yes"/>
      <point x="811" y="500"/>
      <point x="696" y="610"/>
      <point x="485" y="610" type="curve" smooth="yes"/>
      <point x="344" y="610" type="line"/>
      <point x="344" y="1085" type="line"/>
      <point x="16" y="1085" type="line"/>
      <point x="16" y="999" type="line"/>
      <point x="250" y="999" type="line"/>
    </contour>
    <contour>
      <point x="344" y="86" type="line"/>
      <point x="344" y="524" type="line"/>
      <point x="485" y="524" type="line" smooth="yes"/>
      <point x="637" y="524"/>
      <point x="713" y="451"/>
      <point x="713" y="305" type="curve" smooth="yes"/>
      <point x="713" y="159"/>
      <point x="636" y="86"/>
      <point x="483" y="86" type="curve" smooth="yes"/>
    </contour>
  </outline>
</glyph>
<glyph name="e-cy" format="1">
  <advance width="682"/>
  <unicode hex="0454"/>
  <note>
    afii10101
  </note>
  <outline>
    <contour>
      <point x="444" y="-20" type="curve" smooth="yes"/>
      <point x="500" y="-20"/>
      <point x="575" y="-5"/>
      <point x="618" y="18" type="curve"/>
      <point x="618" y="109" type="line"/>
      <point x="563" y="83"/>
      <point x="508" y="70"/>
      <point x="453" y="70" type="curve" smooth="yes"/>
      <point x="284" y="70"/>
      <point x="198" y="221"/>
      <point x="195" y="524" type="curve"/>
      <point x="489" y="524" type="line"/>
      <point x="489" y="610" type="line"/>
      <point x="195" y="610" type="line"/>
      <point x="208" y="881"/>
      <point x="294" y="1016"/>
      <point x="455" y="1016" type="curve" smooth="yes"/>
      <point x="503" y="1016"/>
      <point x="561" y="998"/>
      <point x="590" y="981" type="curve"/>
      <point x="625" y="1067" type="line"/>
      <point x="571" y="1093"/>
      <point x="511" y="1106"/>
      <point x="446" y="1106" type="curve" smooth="yes"/>
      <point x="215" y="1106"/>
      <point x="96" y="908"/>
      <point x="96" y="537" type="curve" smooth="yes"/>
      <point x="96" y="170"/>
      <point x="213" y="-20"/>
    </contour>
  </outline>
</glyph>
<glyph name="Omega-cy" format="1">
  <advance width="1380"/>
  <unicode hex="0460"/>
  <note>
    uni0460
  </note>
  <outline>
    <contour>
      <point x="475" y="-20" type="curve" smooth="yes"/>
      <point x="559" y="-20"/>
      <point x="621" y="4"/>
      <point x="689" y="76" type="curve"/>
      <point x="691" y="76" type="line"/>
      <point x="757" y="7"/>
      <point x="822" y="-20"/>
      <point x="903" y="-20" type="curve" smooth="yes"/>
      <point x="1174" y="-20"/>
      <point x="1270" y="375"/>
      <point x="1270" y="735" type="curve" smooth="yes"/>
      <point x="1270" y="1200"/>
      <point x="1137" y="1485"/>
      <point x="920" y="1485" type="curve" smooth="yes"/>
      <point x="856" y="1485"/>
      <point x="794" y="1464"/>
      <point x="733" y="1423" type="curve"/>
      <point x="780" y="1341" type="line"/>
      <point x="817" y="1374"/>
      <point x="860" y="1391"/>
      <point x="911" y="1391" type="curve" smooth="yes"/>
      <point x="990" y="1391"/>
      <point x="1052" y="1333"/>
      <point x="1098" y="1217" type="curve" smooth="yes"/>
      <point x="1144" y="1101"/>
      <point x="1167" y="940"/>
      <point x="1167" y="733" type="curve" smooth="yes"/>
      <point x="1167" y="600"/>
      <point x="1156" y="483"/>
      <point x="1133" y="383" type="curve" smooth="yes"/>
      <point x="1088" y="183"/>
      <point x="1004" y="74"/>
      <point x="901" y="74" type="curve" smooth="yes"/>
      <point x="839" y="74"/>
      <point x="785" y="101"/>
      <point x="739" y="156" type="curve"/>
      <point x="739" y="627" type="line"/>
      <point x="641" y="627" type="line"/>
      <point x="641" y="156" type="line"/>
      <point x="592" y="101"/>
      <point x="539" y="74"/>
      <point x="481" y="74" type="curve" smooth="yes"/>
      <point x="428" y="74"/>
      <point x="381" y="100"/>
      <point x="341" y="153" type="curve" smooth="yes"/>
      <point x="260" y="257"/>
      <point x="213" y="461"/>
      <point x="213" y="733" type="curve" smooth="yes"/>
      <point x="213" y="939"/>
      <point x="236" y="1100"/>
      <point x="282" y="1217" type="curve" smooth="yes"/>
      <point x="328" y="1333"/>
      <point x="390" y="1391"/>
      <point x="469" y="1391" type="curve" smooth="yes"/>
      <point x="520" y="1391"/>
      <point x="563" y="1374"/>
      <point x="600" y="1341" type="curve"/>
      <point x="647" y="1423" type="line"/>
      <point x="586" y="1464"/>
      <point x="524" y="1485"/>
      <point x="461" y="1485" type="curve" smooth="yes"/>
      <point x="244" y="1485"/>
      <point x="111" y="1198"/>
      <point x="111" y="735" type="curve" smooth="yes"/>
      <point x="111" y="381"/>
      <point x="204" y="-20"/>
    </contour>
  </outline>
</glyph>
<glyph name="Yuslittle-cy" format="1">
  <advance width="895"/>
  <unicode hex="0466"/>
  <note>
    uni0466
  </note>
  <outline>
    <contour>
      <point x="0" y="0" type="line"/>
      <point x="102" y="0" type="line"/>
      <point x="291" y="719" type="line"/>
      <point x="401" y="719" type="line"/>
      <point x="401" y="0" type="line"/>
      <point x="496" y="0" type="line"/>
      <point x="496" y="719" type="line"/>
      <point x="600" y="719" type="line"/>
      <point x="795" y="0" type="line"/>
      <point x="895" y="0" type="line"/>
      <point x="489" y="1462" type="line"/>
      <point x="397" y="1462" type="line"/>
    </contour>
    <contour>
      <point x="315" y="813" type="line"/>
      <point x="346" y="931"/>
      <point x="377" y="1049"/>
      <point x="408" y="1167" type="curve" smooth="yes"/>
      <point x="425" y="1225"/>
      <point x="436" y="1283"/>
      <point x="442" y="1341" type="curve"/>
      <point x="451" y="1280"/>
      <point x="464" y="1222"/>
      <point x="479" y="1167" type="curve" smooth="yes"/>
      <point x="510" y="1049"/>
      <point x="542" y="931"/>
      <point x="573" y="813" type="curve"/>
    </contour>
  </outline>
</glyph>
<glyph name="yuslittle-cy" format="1">
  <advance width="778"/>
  <unicode hex="0467"/>
  <note>
    uni0467
  </note>
  <outline>
    <contour>
      <point x="10" y="0" type="line"/>
      <point x="106" y="0" type="line"/>
      <point x="260" y="524" type="line"/>
      <point x="342" y="524" type="line"/>
      <point x="342" y="0" type="line"/>
      <point x="432" y="0" type="line"/>
      <point x="432" y="524" type="line"/>
      <point x="516" y="524" type="line"/>
      <point x="672" y="0" type="line"/>
      <point x="768" y="0" type="line"/>
      <point x="440" y="1085" type="line"/>
      <point x="342" y="1085" type="line"/>
    </contour>
    <contour>
      <point x="287" y="610" type="line"/>
      <point x="318" y="717"/>
      <point x="341" y="796"/>
      <point x="355" y="848" type="curve" smooth="yes"/>
      <point x="368" y="896"/>
      <point x="378" y="937"/>
      <point x="385" y="985" type="curve"/>
      <point x="393" y="985" type="line"/>
      <point x="394" y="969"/>
      <point x="405" y="913"/>
      <point x="420" y="855" type="curve" smooth="yes"/>
      <point x="432" y="809"/>
      <point x="450" y="744"/>
      <point x="489" y="610" type="curve"/>
    </contour>
  </outline>
</glyph>
<glyph name="Yuslittleiotified-cy" format="1">
  <advance width="1284"/>
  <unicode hex="0468"/>
  <note>
    uni0468
  </note>
  <outline>
    <contour>
      <point x="160" y="0" type="line"/>
      <point x="258" y="0" type="line"/>
      <point x="258" y="719" type="line"/>
      <point x="584" y="719" type="line"/>
      <point x="389" y="0" type="line"/>
      <point x="492" y="0" type="line"/>
      <point x="680" y="719" type="line"/>
      <point x="791" y="719" type="line"/>
      <point x="791" y="0" type="line"/>
      <point x="885" y="0" type="line"/>
      <point x="885" y="719" type="line"/>
      <point x="989" y="719" type="line"/>
      <point x="1184" y="0" type="line"/>
      <point x="1284" y="0" type="line"/>
      <point x="879" y="1462" type="line"/>
      <point x="786" y="1462" type="line"/>
      <point x="610" y="813" type="line"/>
      <point x="258" y="813" type="line"/>
      <point x="258" y="1462" type="line"/>
      <point x="160" y="1462" type="line"/>
    </contour>
    <contour>
      <point x="705" y="813" type="line"/>
      <point x="775" y="1080"/>
      <point x="820" y="1234"/>
      <point x="831" y="1341" type="curve"/>
      <point x="848" y="1229"/>
      <point x="893" y="1072"/>
      <point x="963" y="813" type="curve"/>
    </contour>
  </outline>
</glyph>
<glyph name="ksi-cy" format="1">
  <advance width="643"/>
  <unicode hex="046F"/>
  <note>
    uni046F
  </note>
  <outline>
    <contour>
      <point x="502" y="-330" type="curve"/>
      <point x="502" y="-236" type="line"/>
      <point x="476" y="-229"/>
      <point x="445" y="-225"/>
      <point x="410" y="-225" type="curve" smooth="yes"/>
      <point x="341" y="-225"/>
      <point x="328" y="-236"/>
      <point x="264" y="-236" type="curve" smooth="yes"/>
      <point x="173" y="-236"/>
      <point x="139" y="-197"/>
      <point x="139" y="-125" type="curve" smooth="yes"/>
      <point x="139" y="-75"/>
      <point x="156" y="-42"/>
      <point x="193" y="-22" type="curve" smooth="yes"/>
      <point x="214" y="-11"/>
      <point x="243" y="-3"/>
      <point x="279" y="0" type="curve" smooth="yes"/>
      <point x="463" y="16"/>
      <point x="555" y="128"/>
      <point x="555" y="315" type="curve" smooth="yes"/>
      <point x="555" y="442"/>
      <point x="502" y="531"/>
      <point x="371" y="580" type="curve"/>
      <point x="371" y="588" type="line"/>
      <point x="464" y="627"/>
      <point x="522" y="718"/>
      <point x="522" y="831" type="curve" smooth="yes"/>
      <point x="522" y="972"/>
      <point x="456" y="1067"/>
      <point x="340" y="1096" type="curve"/>
      <point x="392" y="1207"/>
      <point x="438" y="1262"/>
      <point x="477" y="1262" type="curve" smooth="yes"/>
      <point x="487" y="1262"/>
      <point x="498" y="1258"/>
      <point x="510" y="1251" type="curve"/>
      <point x="510" y="1335" type="line"/>
      <point x="493" y="1344"/>
      <point x="476" y="1348"/>
      <point x="459" y="1348" type="curve" smooth="yes"/>
      <point x="430" y="1348"/>
      <point x="400" y="1332"/>
      <point x="371" y="1301" type="curve" smooth="yes"/>
      <point x="342" y="1269"/>
      <point x="307" y="1212"/>
      <point x="266" y="1130" type="curve"/>
      <point x="209" y="1225"/>
      <point x="158" y="1299"/>
      <point x="113" y="1352" type="curve"/>
      <point x="41" y="1352" type="line"/>
      <point x="41" y="1335" type="line"/>
      <point x="98" y="1256"/>
      <point x="145" y="1177"/>
      <point x="182" y="1098" type="curve"/>
      <point x="132" y="1089"/>
      <point x="92" y="1073"/>
      <point x="61" y="1051" type="curve"/>
      <point x="106" y="977" type="line"/>
      <point x="145" y="1007"/>
      <point x="193" y="1022"/>
      <point x="252" y="1022" type="curve" smooth="yes"/>
      <point x="367" y="1022"/>
      <point x="424" y="958"/>
      <point x="424" y="829" type="curve" smooth="yes"/>
      <point x="424" y="753"/>
      <point x="396" y="682"/>
      <point x="336" y="643" type="curve" smooth="yes"/>
      <point x="310" y="627"/>
      <point x="280" y="618"/>
      <point x="250" y="618" type="curve" smooth="yes"/>
      <point x="195" y="618" type="line"/>
      <point x="195" y="532" type="line"/>
      <point x="264" y="532" type="line" smooth="yes"/>
      <point x="295" y="532"/>
      <point x="324" y="525"/>
      <point x="350" y="513" type="curve" smooth="yes"/>
      <point x="414" y="482"/>
      <point x="457" y="414"/>
      <point x="457" y="322" type="curve" smooth="yes"/>
      <point x="457" y="174"/>
      <point x="405" y="102"/>
      <point x="262" y="90" type="curve" smooth="yes"/>
      <point x="122" y="77"/>
      <point x="45" y="-1"/>
      <point x="45" y="-125" type="curve" smooth="yes"/>
      <point x="45" y="-253"/>
      <point x="121" y="-326"/>
      <point x="260" y="-326" type="curve" smooth="yes"/>
      <point x="319" y="-326"/>
      <point x="359" y="-315"/>
      <point x="410" y="-315" type="curve" smooth="yes"/>
      <point x="447" y="-315"/>
      <point x="478" y="-320"/>
    </contour>
  </outline>
</glyph>
<glyph name="titlocomb-cy" format="1">
  <advance width="1112"/>
  <unicode hex="0483"/>
  <note>
    uni0483
  </note>
  <outline>
    <contour>
      <point x="391" y="1188" type="curve" smooth="yes"/>
      <point x="422" y="1188"/>
      <point x="453" y="1213"/>
      <point x="453" y="1272" type="curve"/>
      <point x="737" y="1272" type="line" smooth="yes"/>
      <point x="778" y="1272"/>
      <point x="799" y="1297"/>
      <point x="799" y="1346" type="curve" smooth="yes"/>
      <point x="799" y="1403"/>
      <point x="768" y="1430"/>
      <point x="737" y="1430" type="curve" smooth="yes"/>
      <point x="705" y="1430"/>
      <point x="674" y="1403"/>
      <point x="674" y="1346" type="curve"/>
      <point x="391" y="1346" type="line" smooth="yes"/>
      <point x="349" y="1346"/>
      <point x="328" y="1321"/>
      <point x="328" y="1272" type="curve" smooth="yes"/>
      <point x="328" y="1213"/>
      <point x="358" y="1188"/>
    </contour>
  </outline>
</glyph>
<glyph name="palatalizationcomb-cy" format="1">
  <advance width="1126"/>
  <unicode hex="0484"/>
  <note>
    uni0484
  </note>
  <outline>
    <contour>
      <point x="754" y="1257" type="line"/>
      <point x="840" y="1257" type="line"/>
      <point x="840" y="1276"/>
      <point x="839" y="1293"/>
      <point x="837" y="1309" type="curve" smooth="yes"/>
      <point x="824" y="1407"/>
      <point x="770" y="1456"/>
      <point x="676" y="1456" type="curve" smooth="yes"/>
      <point x="621" y="1456"/>
      <point x="560" y="1439"/>
      <point x="492" y="1405" type="curve" smooth="yes"/>
      <point x="375" y="1346"/>
      <point x="327" y="1335"/>
      <point x="266" y="1335" type="curve"/>
      <point x="266" y="1257" type="line"/>
      <point x="276" y="1257" type="line" smooth="yes"/>
      <point x="337" y="1257"/>
      <point x="400" y="1274"/>
      <point x="465" y="1306" type="curve" smooth="yes"/>
      <point x="528" y="1337"/>
      <point x="571" y="1357"/>
      <point x="594" y="1366" type="curve" smooth="yes"/>
      <point x="617" y="1375"/>
      <point x="638" y="1378"/>
      <point x="659" y="1378" type="curve" smooth="yes"/>
      <point x="729" y="1378"/>
      <point x="754" y="1343"/>
      <point x="754" y="1259" type="curve" smooth="yes"/>
    </contour>
  </outline>
</glyph>
<glyph name="dasiapneumatacomb-cy" format="1">
  <advance width="1182"/>
  <unicode hex="0485"/>
  <note>
    uni0485
  </note>
  <outline>
    <contour>
      <point x="692" y="1247" type="curve"/>
      <point x="692" y="1303" type="line"/>
      <point x="617" y="1328"/>
      <point x="580" y="1363"/>
      <point x="580" y="1408" type="curve" smooth="yes"/>
      <point x="580" y="1439"/>
      <point x="597" y="1452"/>
      <point x="622" y="1464" type="curve" smooth="yes"/>
      <point x="643" y="1474"/>
      <point x="664" y="1487"/>
      <point x="664" y="1522" type="curve" smooth="yes"/>
      <point x="664" y="1563"/>
      <point x="637" y="1589"/>
      <point x="596" y="1589" type="curve" smooth="yes"/>
      <point x="539" y="1589"/>
      <point x="502" y="1540"/>
      <point x="502" y="1459" type="curve" smooth="yes"/>
      <point x="502" y="1353"/>
      <point x="564" y="1285"/>
    </contour>
  </outline>
</glyph>
<glyph name="Ertick-cy" format="1">
  <advance width="840"/>
  <unicode hex="048E"/>
  <note>
    uni048E
  </note>
  <outline>
    <contour>
      <point x="674" y="449" type="line"/>
      <point x="743" y="502" type="line"/>
      <point x="438" y="928" type="line"/>
      <point x="369" y="877" type="line"/>
    </contour>
    <component base="P"/>
  </outline>
</glyph>
<glyph name="Kadescender-cy" format="1">
  <advance width="877"/>
  <unicode hex="049A"/>
  <note>
    uni049A
  </note>
  <outline>
    <contour>
      <point x="752" y="-369" type="line"/>
      <point x="846" y="-369" type="line"/>
      <point x="846" y="94" type="line"/>
      <point x="755" y="94" type="line"/>
      <point x="360" y="756" type="line"/>
      <point x="778" y="1462" type="line"/>
      <point x="672" y="1462" type="line"/>
      <point x="258" y="756" type="line"/>
      <point x="258" y="1462" type="line"/>
      <point x="160" y="1462" type="line"/>
      <point x="160" y="0" type="line"/>
      <point x="258" y="0" type="line"/>
      <point x="258" y="748" type="line"/>
      <point x="698" y="0" type="line"/>
      <point x="752" y="0" type="line"/>
    </contour>
  </outline>
</glyph>
<glyph name="kabashkir-cy" format="1">
  <advance width="756"/>
  <unicode hex="04A1"/>
  <note>
    uni04A1
  </note>
  <outline>
    <contour>
      <point x="209" y="0" type="line"/>
      <point x="303" y="0" type="line"/>
      <point x="303" y="567" type="line"/>
      <point x="633" y="0" type="line"/>
      <point x="745" y="0" type="line"/>
      <point x="399" y="575" type="line"/>
      <point x="719" y="1085" type="line"/>
      <point x="610" y="1085" type="line"/>
      <point x="303" y="575" type="line"/>
      <point x="303" y="1085" type="line"/>
      <point x="16" y="1085" type="line"/>
      <point x="16" y="999" type="line"/>
      <point x="209" y="999" type="line"/>
    </contour>
  </outline>
</glyph>
<glyph name="Tetse-cy" format="1">
  <advance width="1178"/>
  <unicode hex="04B4"/>
  <note>
    uni04B4
  </note>
  <outline>
    <contour>
      <point x="1028" y="-369" type="line"/>
      <point x="1122" y="-369" type="line"/>
      <point x="1122" y="94" type="line"/>
      <point x="1012" y="94" type="line"/>
      <point x="1012" y="1462" type="line"/>
      <point x="913" y="1462" type="line"/>
      <point x="913" y="94" type="line"/>
      <point x="403" y="94" type="line"/>
      <point x="403" y="1368" type="line"/>
      <point x="694" y="1368" type="line"/>
      <point x="694" y="1462" type="line"/>
      <point x="14" y="1462" type="line"/>
      <point x="14" y="1368" type="line"/>
      <point x="305" y="1368" type="line"/>
      <point x="305" y="0" type="line"/>
      <point x="1028" y="0" type="line"/>
    </contour>
  </outline>
</glyph>
<glyph name="Cheverticalstroke-cy" format="1">
  <advance width="1001"/>
  <unicode hex="04B8"/>
  <note>
    uni04B8
  </note>
  <outline>
    <contour>
      <point x="743" y="0" type="line"/>
      <point x="842" y="0" type="line"/>
      <point x="842" y="1462" type="line"/>
      <point x="743" y="1462" type="line"/>
      <point x="743" y="713" type="line"/>
      <point x="667" y="672"/>
      <point x="596" y="645"/>
      <point x="530" y="633" type="curve"/>
      <point x="530" y="999" type="line"/>
      <point x="444" y="999" type="line"/>
      <point x="444" y="627" type="line"/>
      <point x="432" y="627" type="line" smooth="yes"/>
      <point x="296" y="627"/>
      <point x="233" y="715"/>
      <point x="233" y="895" type="curve" smooth="yes"/>
      <point x="233" y="1462" type="line"/>
      <point x="135" y="1462" type="line"/>
      <point x="135" y="899" type="line" smooth="yes"/>
      <point x="135" y="654"/>
      <point x="231" y="532"/>
      <point x="424" y="532" type="curve" smooth="yes"/>
      <point x="431" y="532"/>
      <point x="437" y="532"/>
      <point x="444" y="532" type="curve"/>
      <point x="444" y="213" type="line"/>
      <point x="530" y="213" type="line"/>
      <point x="530" y="543" type="line"/>
      <point x="605" y="560"/>
      <point x="676" y="588"/>
      <point x="743" y="627" type="curve"/>
    </contour>
  </outline>
</glyph>
<glyph name="Shha-cy" format="1">
  <advance width="1001"/>
  <unicode hex="04BA"/>
  <note>
    uni04BA
  </note>
  <outline>
    <contour>
      <point x="160" y="0" type="line"/>
      <point x="258" y="0" type="line"/>
      <point x="258" y="750" type="line"/>
      <point x="390" y="821"/>
      <point x="466" y="836"/>
      <point x="569" y="836" type="curve" smooth="yes"/>
      <point x="705" y="836"/>
      <point x="768" y="747"/>
      <point x="768" y="567" type="curve" smooth="yes"/>
      <point x="768" y="0" type="line"/>
      <point x="866" y="0" type="line"/>
      <point x="866" y="563" type="line" smooth="yes"/>
      <point x="866" y="808"/>
      <point x="770" y="930"/>
      <point x="578" y="930" type="curve" smooth="yes"/>
      <point x="481" y="930"/>
      <point x="362" y="895"/>
      <point x="258" y="836" type="curve"/>
      <point x="258" y="1462" type="line"/>
      <point x="160" y="1462" type="line"/>
    </contour>
    <contour>
      <point x="981" y="0" type="move" name="bottomright"/>
    </contour>
  </outline>
</glyph>
<glyph name="Chedescenderabkhasian-cy" format="1">
  <advance width="1186"/>
  <unicode hex="04BE"/>
  <note>
    uni04BE
  </note>
  <outline>
    <contour>
      <point x="651" y="-369" type="line"/>
      <point x="745" y="-369" type="line"/>
      <point x="745" y="-2" type="line"/>
      <point x="651" y="0" type="line"/>
    </contour>
    <component base="Cheabkhasian-cy"/>
  </outline>
</glyph>
<glyph name="Komide-cy" format="1">
  <advance width="840"/>
  <unicode hex="0500"/>
  <note>
    uni0500
  </note>
  <outline>
    <contour>
      <point x="408" y="0" type="curve" smooth="yes"/>
      <point x="680" y="0" type="line"/>
      <point x="680" y="1462" type="line"/>
      <point x="582" y="1462" type="line"/>
      <point x="582" y="858" type="line"/>
      <point x="463" y="858" type="line" smooth="yes"/>
      <point x="200" y="858"/>
      <point x="78" y="732"/>
      <point x="78" y="440" type="curve" smooth="yes"/>
      <point x="78" y="147"/>
      <point x="188" y="0"/>
    </contour>
    <contour>
      <point x="422" y="90" type="line" smooth="yes"/>
      <point x="249" y="90"/>
      <point x="178" y="188"/>
      <point x="178" y="440" type="curve" smooth="yes"/>
      <point x="178" y="684"/>
      <point x="255" y="768"/>
      <point x="463" y="768" type="curve" smooth="yes"/>
      <point x="582" y="768" type="line"/>
      <point x="582" y="90" type="line"/>
    </contour>
  </outline>
</glyph>
<glyph name="komilje-cy" format="1">
  <advance width="1163"/>
  <unicode hex="0509"/>
  <note>
    uni0509
  </note>
  <outline>
    <contour>
      <point x="791" y="-20" type="curve" smooth="yes"/>
      <point x="876" y="-20"/>
      <point x="937" y="6"/>
      <point x="978" y="59" type="curve" smooth="yes"/>
      <point x="1023" y="119"/>
      <point x="1044" y="211"/>
      <point x="1044" y="338" type="curve" smooth="yes"/>
      <point x="1044" y="700" type="line"/>
      <point x="950" y="700" type="line"/>
      <point x="950" y="342" type="line" smooth="yes"/>
      <point x="950" y="225"/>
      <point x="931" y="148"/>
      <point x="891" y="106" type="curve" smooth="yes"/>
      <point x="866" y="79"/>
      <point x="833" y="66"/>
      <point x="791" y="66" type="curve" smooth="yes"/>
      <point x="683" y="66"/>
      <point x="631" y="151"/>
      <point x="631" y="342" type="curve" smooth="yes"/>
      <point x="631" y="1085" type="line"/>
      <point x="215" y="1085" type="line"/>
      <point x="206" y="834"/>
      <point x="193" y="637"/>
      <point x="178" y="494" type="curve" smooth="yes"/>
      <point x="163" y="351"/>
      <point x="143" y="247"/>
      <point x="120" y="180" type="curve" smooth="yes"/>
      <point x="96" y="113"/>
      <point x="64" y="80"/>
      <point x="25" y="80" type="curve" smooth="yes"/>
      <point x="10" y="80"/>
      <point x="-2" y="82"/>
      <point x="-10" y="86" type="curve"/>
      <point x="-10" y="-2" type="line"/>
      <point x="4" y="-7"/>
      <point x="19" y="-10"/>
      <point x="35" y="-10" type="curve" smooth="yes"/>
      <point x="136" y="-10"/>
      <point x="187" y="58"/>
      <point x="224" y="212" type="curve" smooth="yes"/>
      <point x="261" y="366"/>
      <point x="288" y="626"/>
      <point x="303" y="995" type="curve"/>
      <point x="537" y="995" type="line"/>
      <point x="537" y="342" type="line" smooth="yes"/>
      <point x="537" y="260"/>
      <point x="546" y="193"/>
      <point x="564" y="139" type="curve" smooth="yes"/>
      <point x="600" y="31"/>
      <point x="674" y="-20"/>
    </contour>
  </outline>
</glyph>
<glyph name="komisje-cy" format="1">
  <advance width="838"/>
  <unicode hex="050D"/>
  <note>
    uni050D
  </note>
  <outline>
    <contour>
      <point x="436" y="-20" type="curve" smooth="yes"/>
      <point x="643" y="-20"/>
      <point x="756" y="155"/>
      <point x="756" y="479" type="curve" smooth="yes"/>
      <point x="756" y="545" type="line"/>
      <point x="457" y="545" type="line"/>
      <point x="457" y="459" type="line"/>
      <point x="662" y="459" type="line"/>
      <point x="662" y="207"/>
      <point x="583" y="66"/>
      <point x="436" y="66" type="curve" smooth="yes"/>
      <point x="265" y="66"/>
      <point x="193" y="233"/>
      <point x="193" y="545" type="curve" smooth="yes"/>
      <point x="193" y="853"/>
      <point x="297" y="1016"/>
      <point x="477" y="1016" type="curve" smooth="yes"/>
      <point x="539" y="1016"/>
      <point x="603" y="997"/>
      <point x="668" y="958" type="curve"/>
      <point x="709" y="1042" type="line"/>
      <point x="638" y="1085"/>
      <point x="561" y="1106"/>
      <point x="477" y="1106" type="curve" smooth="yes"/>
      <point x="233" y="1106"/>
      <point x="94" y="905"/>
      <point x="94" y="545" type="curve" smooth="yes"/>
      <point x="94" y="178"/>
      <point x="211" y="-20"/>
    </contour>
  </outline>
</glyph>
<glyph name="sheva-hb" format="1">
  <advance width="0"/>
  <unicode hex="05B0"/>
  <note>
    afii57799
  </note>
  <outline>
    <contour>
      <point x="1" y="-230" type="curve" smooth="yes"/>
      <point x="44" y="-230"/>
      <point x="65" y="-205"/>
      <point x="65" y="-155" type="curve" smooth="yes"/>
      <point x="65" y="-105"/>
      <point x="44" y="-80"/>
      <point x="1" y="-80" type="curve" smooth="yes"/>
      <point x="-40" y="-80"/>
      <point x="-60" y="-105"/>
      <point x="-60" y="-155" type="curve" smooth="yes"/>
      <point x="-60" y="-205"/>
      <point x="-40" y="-230"/>
    </contour>
    <contour>
      <point x="1" y="-494" type="curve" smooth="yes"/>
      <point x="44" y="-494"/>
      <point x="65" y="-469"/>
      <point x="65" y="-418" type="curve" smooth="yes"/>
      <point x="65" y="-368"/>
      <point x="44" y="-343"/>
      <point x="1" y="-343" type="curve" smooth="yes"/>
      <point x="-40" y="-343"/>
      <point x="-60" y="-368"/>
      <point x="-60" y="-418" type="curve" smooth="yes"/>
      <point x="-60" y="-469"/>
      <point x="-40" y="-494"/>
    </contour>
    <contour>
      <point x="3" y="-60" type="move" name="_bottom"/>
    </contour>
  </outline>
</glyph>
<glyph name="hatafqamats-hb" format="1">
  <advance width="0"/>
  <unicode hex="05B3"/>
  <note>
    afii57802
  </note>
  <outline>
    <contour>
      <point x="-145" y="-392" type="line"/>
      <point x="-73" y="-392" type="line"/>
      <point x="-73" y="-190" type="line"/>
      <point x="69" y="-190" type="line"/>
      <point x="69" y="-119" type="line"/>
      <point x="-287" y="-119" type="line"/>
      <point x="-287" y="-190" type="line"/>
      <point x="-145" y="-190" type="line"/>
    </contour>
    <contour>
      <point x="222" y="-494" type="curve" smooth="yes"/>
      <point x="265" y="-494"/>
      <point x="286" y="-469"/>
      <point x="286" y="-418" type="curve" smooth="yes"/>
      <point x="286" y="-368"/>
      <point x="265" y="-343"/>
      <point x="222" y="-343" type="curve" smooth="yes"/>
      <point x="181" y="-343"/>
      <point x="161" y="-368"/>
      <point x="161" y="-418" type="curve" smooth="yes"/>
      <point x="161" y="-469"/>
      <point x="181" y="-494"/>
    </contour>
    <contour>
      <point x="222" y="-230" type="curve" smooth="yes"/>
      <point x="265" y="-230"/>
      <point x="286" y="-205"/>
      <point x="286" y="-155" type="curve" smooth="yes"/>
      <point x="286" y="-105"/>
      <point x="265" y="-80"/>
      <point x="222" y="-80" type="curve" smooth="yes"/>
      <point x="181" y="-80"/>
      <point x="161" y="-105"/>
      <point x="161" y="-155" type="curve" smooth="yes"/>
      <point x="161" y="-205"/>
      <point x="181" y="-230"/>
    </contour>
    <contour>
      <point x="-1" y="-60" type="move" name="_bottom"/>
    </contour>
  </outline>
</glyph>
<glyph name="hiriq-hb" format="1">
  <advance width="0"/>
  <unicode hex="05B4"/>
  <note>
    afii57793
  </note>
  <outline>
    <contour>
      <point x="-2" y="-230" type="curve" smooth="yes"/>
      <point x="42" y="-230"/>
      <point x="63" y="-205"/>
      <point x="63" y="-155" type="curve" smooth="yes"/>
      <point x="63" y="-105"/>
      <point x="42" y="-80"/>
      <point x="-2" y="-80" type="curve" smooth="yes"/>
      <point x="-43" y="-80"/>
      <point x="-63" y="-105"/>
      <point x="-63" y="-155" type="curve" smooth="yes"/>
      <point x="-63" y="-205"/>
      <point x="-43" y="-230"/>
    </contour>
    <contour>
      <point x="1" y="-60" type="move" name="_bottom"/>
    </contour>
  </outline>
</glyph>
<glyph name="tsere-hb" format="1">
  <advance width="0"/>
  <unicode hex="05B5"/>
  <note>
    afii57794
  </note>
  <outline>
    <contour>
      <point x="143" y="-230" type="curve" smooth="yes"/>
      <point x="185" y="-230"/>
      <point x="206" y="-205"/>
      <point x="206" y="-155" type="curve" smooth="yes"/>
      <point x="206" y="-105"/>
      <point x="185" y="-80"/>
      <point x="143" y="-80" type="curve" smooth="yes"/>
      <point x="102" y="-80"/>
      <point x="82" y="-105"/>
      <point x="82" y="-155" type="curve" smooth="yes"/>
      <point x="82" y="-205"/>
      <point x="102" y="-230"/>
    </contour>
    <contour>
      <point x="-144" y="-230" type="curve" smooth="yes"/>
      <point x="-102" y="-230"/>
      <point x="-81" y="-205"/>
      <point x="-81" y="-155" type="curve" smooth="yes"/>
      <point x="-81" y="-105"/>
      <point x="-102" y="-80"/>
      <point x="-144" y="-80" type="curve" smooth="yes"/>
      <point x="-185" y="-80"/>
      <point x="-205" y="-105"/>
      <point x="-205" y="-155" type="curve" smooth="yes"/>
      <point x="-205" y="-205"/>
      <point x="-185" y="-230"/>
    </contour>
    <contour>
      <point x="1" y="-60" type="move" name="_bottom"/>
    </contour>
  </outline>
</glyph>
<glyph name="segol-hb" format="1">
  <advance width="0"/>
  <unicode hex="05B6"/>
  <note>
    afii57795
  </note>
  <outline>
    <contour>
      <point x="0" y="-494" type="curve" smooth="yes"/>
      <point x="43" y="-494"/>
      <point x="64" y="-469"/>
      <point x="64" y="-418" type="curve" smooth="yes"/>
      <point x="64" y="-368"/>
      <point x="43" y="-343"/>
      <point x="0" y="-343" type="curve" smooth="yes"/>
      <point x="-41" y="-343"/>
      <point x="-61" y="-368"/>
      <point x="-61" y="-418" type="curve" smooth="yes"/>
      <point x="-61" y="-469"/>
      <point x="-41" y="-494"/>
    </contour>
    <contour>
      <point x="145" y="-230" type="curve" smooth="yes"/>
      <point x="187" y="-230"/>
      <point x="208" y="-205"/>
      <point x="208" y="-155" type="curve" smooth="yes"/>
      <point x="208" y="-105"/>
      <point x="187" y="-80"/>
      <point x="145" y="-80" type="curve" smooth="yes"/>
      <point x="104" y="-80"/>
      <point x="84" y="-105"/>
      <point x="84" y="-155" type="curve" smooth="yes"/>
      <point x="84" y="-205"/>
      <point x="104" y="-230"/>
    </contour>
    <contour>
      <point x="-142" y="-230" type="curve" smooth="yes"/>
      <point x="-100" y="-230"/>
      <point x="-79" y="-205"/>
      <point x="-79" y="-155" type="curve" smooth="yes"/>
      <point x="-79" y="-105"/>
      <point x="-100" y="-80"/>
      <point x="-142" y="-80" type="curve" smooth="yes"/>
      <point x="-183" y="-80"/>
      <point x="-203" y="-105"/>
      <point x="-203" y="-155" type="curve" smooth="yes"/>
      <point x="-203" y="-205"/>
      <point x="-183" y="-230"/>
    </contour>
    <contour>
      <point x="3" y="-60" type="move" name="_bottom"/>
    </contour>
  </outline>
</glyph>
<glyph name="qamats-hb" format="1">
  <advance width="0"/>
  <unicode hex="05B8"/>
  <note>
    afii57797
  </note>
  <outline>
    <contour>
      <point x="-36" y="-384" type="line"/>
      <point x="36" y="-384" type="line"/>
      <point x="36" y="-183" type="line"/>
      <point x="179" y="-183" type="line"/>
      <point x="179" y="-111" type="line"/>
      <point x="-179" y="-111" type="line"/>
      <point x="-179" y="-183" type="line"/>
      <point x="-36" y="-183" type="line"/>
    </contour>
    <contour>
      <point x="1" y="-91" type="move" name="_bottom"/>
    </contour>
  </outline>
</glyph>
<glyph name="holam-hb" format="1">
  <advance width="0"/>
  <unicode hex="05B9"/>
  <note>
    afii57806
  </note>
  <outline>
    <contour>
      <point x="0" y="1410" type="curve" smooth="yes"/>
      <point x="43" y="1410"/>
      <point x="64" y="1435"/>
      <point x="64" y="1485" type="curve" smooth="yes"/>
      <point x="64" y="1535"/>
      <point x="43" y="1560"/>
      <point x="0" y="1560" type="curve" smooth="yes"/>
      <point x="-41" y="1560"/>
      <point x="-61" y="1535"/>
      <point x="-61" y="1485" type="curve" smooth="yes"/>
      <point x="-61" y="1435"/>
      <point x="-41" y="1410"/>
    </contour>
    <contour>
      <point x="0.5" y="1383" type="move" name="_top"/>
    </contour>
  </outline>
</glyph>
<glyph name="holamhaser-hb" format="1">
  <advance width="0"/>
  <unicode hex="05BA"/>
  <note>
    uni05BA
  </note>
  <outline>
    <contour>
      <point x="-2" y="1410" type="curve" smooth="yes"/>
      <point x="41" y="1410"/>
      <point x="62" y="1435"/>
      <point x="62" y="1485" type="curve" smooth="yes"/>
      <point x="62" y="1535"/>
      <point x="41" y="1560"/>
      <point x="-2" y="1560" type="curve" smooth="yes"/>
      <point x="-42" y="1560"/>
      <point x="-62" y="1535"/>
      <point x="-62" y="1485" type="curve" smooth="yes"/>
      <point x="-62" y="1435"/>
      <point x="-42" y="1410"/>
    </contour>
    <contour>
      <point x="82" y="1390" type="move" name="_topleft"/>
    </contour>
  </outline>
</glyph>
<glyph name="qubuts-hb" format="1">
  <advance width="0"/>
  <unicode hex="05BB"/>
  <note>
    afii57796
  </note>
  <outline>
    <contour>
      <point x="-142" y="-230" type="curve" smooth="yes"/>
      <point x="-100" y="-230"/>
      <point x="-79" y="-205"/>
      <point x="-79" y="-155" type="curve" smooth="yes"/>
      <point x="-79" y="-105"/>
      <point x="-100" y="-80"/>
      <point x="-142" y="-80" type="curve" smooth="yes"/>
      <point x="-183" y="-80"/>
      <point x="-203" y="-105"/>
      <point x="-203" y="-155" type="curve" smooth="yes"/>
      <point x="-203" y="-205"/>
      <point x="-183" y="-230"/>
    </contour>
    <contour>
      <point x="0" y="-362" type="curve" smooth="yes"/>
      <point x="43" y="-362"/>
      <point x="64" y="-337"/>
      <point x="64" y="-286" type="curve" smooth="yes"/>
      <point x="64" y="-236"/>
      <point x="43" y="-211"/>
      <point x="0" y="-211" type="curve" smooth="yes"/>
      <point x="-41" y="-211"/>
      <point x="-61" y="-236"/>
      <point x="-61" y="-286" type="curve" smooth="yes"/>
      <point x="-61" y="-337"/>
      <point x="-41" y="-362"/>
    </contour>
    <contour>
      <point x="145" y="-494" type="curve" smooth="yes"/>
      <point x="187" y="-494"/>
      <point x="208" y="-469"/>
      <point x="208" y="-418" type="curve" smooth="yes"/>
      <point x="208" y="-368"/>
      <point x="187" y="-343"/>
      <point x="145" y="-343" type="curve" smooth="yes"/>
      <point x="104" y="-343"/>
      <point x="84" y="-368"/>
      <point x="84" y="-418" type="curve" smooth="yes"/>
      <point x="84" y="-469"/>
      <point x="104" y="-494"/>
    </contour>
    <contour>
      <point x="3" y="-60" type="move" name="_bottom"/>
    </contour>
  </outline>
</glyph>
<glyph name="dagesh-hb" format="1">
  <advance width="0"/>
  <unicode hex="05BC"/>
  <note>
    afii57807
  </note>
  <outline>
    <contour>
      <point x="0" y="595" type="curve" smooth="yes"/>
      <point x="43" y="595"/>
      <point x="64" y="620"/>
      <point x="64" y="670" type="curve" smooth="yes"/>
      <point x="64" y="720"/>
      <point x="43" y="745"/>
      <point x="0" y="745" type="curve" smooth="yes"/>
      <point x="-41" y="745"/>
      <point x="-61" y="720"/>
      <point x="-61" y="670" type="curve" smooth="yes"/>
      <point x="-61" y="620"/>
      <point x="-41" y="595"/>
    </contour>
    <contour>
      <point x="2" y="670" type="move" name="_center"/>
    </contour>
  </outline>
</glyph>
<glyph name="maqaf-hb" format="1">
  <advance width="516"/>
  <unicode hex="05BE"/>
  <note>
    afii57645
  </note>
  <outline>
    <contour>
      <point x="53" y="1187" type="line"/>
      <point x="463" y="1187" type="line"/>
      <point x="463" y="1289" type="line"/>
      <point x="53" y="1289" type="line"/>
    </contour>
  </outline>
</glyph>
<glyph name="shindot-hb" format="1">
  <advance width="0"/>
  <unicode hex="05C1"/>
  <note>
    afii57804
  </note>
  <outline>
    <contour>
      <point x="-2" y="1410" type="curve" smooth="yes"/>
      <point x="42" y="1410"/>
      <point x="63" y="1435"/>
      <point x="63" y="1485" type="curve" smooth="yes"/>
      <point x="63" y="1535"/>
      <point x="42" y="1560"/>
      <point x="-2" y="1560" type="curve" smooth="yes"/>
      <point x="-43" y="1560"/>
      <point x="-63" y="1535"/>
      <point x="-63" y="1485" type="curve" smooth="yes"/>
      <point x="-63" y="1435"/>
      <point x="-43" y="1410"/>
    </contour>
    <contour>
      <point x="1" y="1085" type="move" name="_topright"/>
    </contour>
  </outline>
</glyph>
<glyph name="sindot-hb" format="1">
  <advance width="0"/>
  <unicode hex="05C2"/>
  <note>
    afii57803
  </note>
  <outline>
    <contour>
      <point x="-1" y="1410" type="curve" smooth="yes"/>
      <point x="42" y="1410"/>
      <point x="63" y="1435"/>
      <point x="63" y="1485" type="curve" smooth="yes"/>
      <point x="63" y="1535"/>
      <point x="42" y="1560"/>
      <point x="-1" y="1560" type="curve" smooth="yes"/>
      <point x="-42" y="1560"/>
      <point x="-62" y="1535"/>
      <point x="-62" y="1485" type="curve" smooth="yes"/>
      <point x="-62" y="1435"/>
      <point x="-42" y="1410"/>
    </contour>
    <contour>
      <point x="83" y="1390" type="move" name="_topleft"/>
    </contour>
  </outline>
</glyph>
<glyph name="qamatsqatan-hb" format="1">
  <advance width="0"/>
  <unicode hex="05C7"/>
  <note>
    uni05C7
  </note>
  <outline>
    <contour>
      <point x="-36" y="-246" type="line"/>
      <point x="36" y="-246" type="line"/>
      <point x="36" y="-129" type="line"/>
      <point x="144" y="-129" type="line"/>
      <point x="144" y="-57" type="line"/>
      <point x="-144" y="-57" type="line"/>
      <point x="-144" y="-129" type="line"/>
      <point x="-36" y="-129" type="line"/>
    </contour>
    <contour>
      <point x="-1" y="-37" type="move" name="_bottom"/>
    </contour>
  </outline>
</glyph>
<glyph name="alef-hb" format="1">
  <advance width="777"/>
  <unicode hex="05D0"/>
  <note>
    afii57664
  </note>
  <outline>
    <contour>
      <point x="72" y="0" type="line"/>
      <point x="163" y="0" type="line"/>
      <point x="163" y="452" type="line" smooth="yes"/>
      <point x="163" y="536"/>
      <point x="172" y="602"/>
      <point x="192" y="655" type="curve" smooth="yes"/>
      <point x="211" y="706"/>
      <point x="241" y="743"/>
      <point x="284" y="771" type="curve"/>
      <point x="600" y="0" type="line"/>
      <point x="703" y="0" type="line"/>
      <point x="522" y="440" type="line"/>
      <point x="605" y="482"/>
      <point x="644" y="539"/>
      <point x="666" y="611" type="curve" smooth="yes"/>
      <point x="691" y="691"/>
      <point x="692" y="784"/>
      <point x="692" y="822" type="curve" smooth="yes"/>
      <point x="692" y="1290" type="line"/>
      <point x="601" y="1290" type="line"/>
      <point x="601" y="823" type="line" smooth="yes"/>
      <point x="601" y="748"/>
      <point x="594" y="690"/>
      <point x="578" y="644" type="curve" smooth="yes"/>
      <point x="560" y="592"/>
      <point x="530" y="556"/>
      <point x="486" y="528" type="curve"/>
      <point x="174" y="1290" type="line"/>
      <point x="72" y="1290" type="line"/>
      <point x="250" y="855" type="line"/>
      <point x="177" y="819"/>
      <point x="126" y="759"/>
      <point x="100" y="672" type="curve" smooth="yes"/>
      <point x="82" y="612"/>
      <point x="72" y="529"/>
      <point x="72" y="453" type="curve" smooth="yes"/>
    </contour>
    <contour>
      <point x="389" y="0" type="move" name="bottom"/>
    </contour>
    <contour>
      <point x="20" y="0" type="move" name="bottomleft"/>
    </contour>
    <contour>
      <point x="389" y="543" type="move" name="center"/>
    </contour>
    <contour>
      <point x="389" y="1085" type="move" name="top"/>
    </contour>
    <contour>
      <point x="20" y="1085" type="move" name="topleft"/>
    </contour>
  </outline>
</glyph>
<glyph name="kaf-hb" format="1">
  <advance width="635"/>
  <unicode hex="05DB"/>
  <note>
    afii57675
  </note>
  <outline>
    <contour>
      <point x="201" y="-20" type="curve" smooth="yes"/>
      <point x="253" y="-20"/>
      <point x="298" y="-10"/>
      <point x="338" y="9" type="curve" smooth="yes"/>
      <point x="410" y="44"/>
      <point x="462" y="110"/>
      <point x="495" y="207" type="curve" smooth="yes"/>
      <point x="524" y="291"/>
      <point x="539" y="400"/>
      <point x="539" y="532" type="curve" smooth="yes"/>
      <point x="539" y="721" type="line" smooth="yes"/>
      <point x="539" y="790"/>
      <point x="536" y="853"/>
      <point x="529" y="910" type="curve" smooth="yes"/>
      <point x="511" y="1052"/>
      <point x="472" y="1156"/>
      <point x="412" y="1222" type="curve" smooth="yes"/>
      <point x="358" y="1281"/>
      <point x="288" y="1310"/>
      <point x="201" y="1310" type="curve" smooth="yes"/>
      <point x="162" y="1310"/>
      <point x="126" y="1305"/>
      <point x="92" y="1294" type="curve" smooth="yes"/>
      <point x="74" y="1289"/>
      <point x="57" y="1282"/>
      <point x="41" y="1273" type="curve"/>
      <point x="41" y="1170" type="line"/>
      <point x="48" y="1174"/>
      <point x="55" y="1178"/>
      <point x="62" y="1182" type="curve" smooth="yes"/>
      <point x="107" y="1207"/>
      <point x="153" y="1220"/>
      <point x="200" y="1220" type="curve" smooth="yes"/>
      <point x="271" y="1220"/>
      <point x="326" y="1188"/>
      <point x="366" y="1124" type="curve" smooth="yes"/>
      <point x="416" y="1042"/>
      <point x="442" y="908"/>
      <point x="442" y="721" type="curve" smooth="yes"/>
      <point x="442" y="532" type="line" smooth="yes"/>
      <point x="442" y="439"/>
      <point x="436" y="375"/>
      <point x="417" y="286" type="curve" smooth="yes"/>
      <point x="409" y="248"/>
      <point x="392" y="193"/>
      <point x="358" y="147" type="curve" smooth="yes"/>
      <point x="324" y="102"/>
      <point x="274" y="66"/>
      <point x="200" y="66" type="curve" smooth="yes"/>
      <point x="136" y="66"/>
      <point x="85" y="77"/>
      <point x="47" y="99" type="curve"/>
      <point x="47" y="7" type="line"/>
      <point x="109" y="-13"/>
      <point x="144" y="-20"/>
    </contour>
    <contour>
      <point x="318" y="0" type="move" name="bottom"/>
    </contour>
    <contour>
      <point x="20" y="0" type="move" name="bottomleft"/>
    </contour>
    <contour>
      <point x="318" y="543" type="move" name="center"/>
    </contour>
    <contour>
      <point x="318" y="1085" type="move" name="top"/>
    </contour>
    <contour>
      <point x="20" y="1085" type="move" name="topleft"/>
    </contour>
  </outline>
</glyph>
<glyph name="finalpe-hb" format="1">
  <advance width="912"/>
  <unicode hex="05E3"/>
  <note>
    afii57683
  </note>
  <outline>
    <contour>
      <point x="677" y="-492" type="line"/>
      <point x="772" y="-492" type="line"/>
      <point x="772" y="645" type="line" smooth="yes"/>
      <point x="772" y="813"/>
      <point x="755" y="949"/>
      <point x="722" y="1053" type="curve" smooth="yes"/>
      <point x="691" y="1152"/>
      <point x="644" y="1222"/>
      <point x="583" y="1264" type="curve" smooth="yes"/>
      <point x="538" y="1295"/>
      <point x="485" y="1310"/>
      <point x="424" y="1310" type="curve" smooth="yes"/>
      <point x="339" y="1310"/>
      <point x="266" y="1276"/>
      <point x="211" y="1217" type="curve" smooth="yes"/>
      <point x="188" y="1192"/>
      <point x="167" y="1162"/>
      <point x="151" y="1129" type="curve" smooth="yes"/>
      <point x="114" y="1056"/>
      <point x="94" y="964"/>
      <point x="94" y="861" type="curve" smooth="yes"/>
      <point x="94" y="720"/>
      <point x="121" y="610"/>
      <point x="177" y="538" type="curve" smooth="yes"/>
      <point x="226" y="475"/>
      <point x="298" y="441"/>
      <point x="392" y="441" type="curve" smooth="yes"/>
      <point x="397" y="441" type="line"/>
      <point x="413" y="516" type="line"/>
      <point x="399" y="516" type="line" smooth="yes"/>
      <point x="334" y="516"/>
      <point x="284" y="537"/>
      <point x="249" y="580" type="curve" smooth="yes"/>
      <point x="204" y="635"/>
      <point x="182" y="728"/>
      <point x="182" y="859" type="curve" smooth="yes"/>
      <point x="182" y="941"/>
      <point x="201" y="1019"/>
      <point x="239" y="1094" type="curve" smooth="yes"/>
      <point x="276" y="1169"/>
      <point x="343" y="1220"/>
      <point x="424" y="1220" type="curve" smooth="yes"/>
      <point x="488" y="1220"/>
      <point x="540" y="1193"/>
      <point x="579" y="1138" type="curve" smooth="yes"/>
      <point x="644" y="1048"/>
      <point x="677" y="883"/>
      <point x="677" y="645" type="curve" smooth="yes"/>
    </contour>
    <contour>
      <point x="456" y="0" type="move" name="bottom"/>
    </contour>
    <contour>
      <point x="20" y="0" type="move" name="bottomleft"/>
    </contour>
    <contour>
      <point x="456" y="543" type="move" name="center"/>
    </contour>
    <contour>
      <point x="456" y="1085" type="move" name="top"/>
    </contour>
    <contour>
      <point x="20" y="1085" type="move" name="topleft"/>
    </contour>
  </outline>
</glyph>
<glyph name="tsadi-hb" format="1">
  <advance width="755"/>
  <unicode hex="05E6"/>
  <note>
    afii57686
  </note>
  <outline>
    <contour>
      <point x="59" y="0" type="line"/>
      <point x="673" y="0" type="line"/>
      <point x="673" y="43" type="line"/>
      <point x="490" y="476" type="line"/>
      <point x="537" y="526"/>
      <point x="567" y="583"/>
      <point x="591" y="652" type="curve" smooth="yes"/>
      <point x="604" y="693"/>
      <point x="615" y="737"/>
      <point x="624" y="785" type="curve" smooth="yes"/>
      <point x="636" y="847"/>
      <point x="644" y="914"/>
      <point x="650" y="981" type="curve" smooth="yes"/>
      <point x="681" y="1290" type="line"/>
      <point x="587" y="1290" type="line"/>
      <point x="555" y="981" type="line" smooth="yes"/>
      <point x="535" y="804"/>
      <point x="512" y="677"/>
      <point x="448" y="574" type="curve"/>
      <point x="441" y="593" type="line"/>
      <point x="160" y="1290" type="line"/>
      <point x="59" y="1290" type="line"/>
      <point x="339" y="593" type="line"/>
      <point x="552" y="84" type="line"/>
      <point x="420" y="84" type="line"/>
      <point x="59" y="84" type="line"/>
    </contour>
    <contour>
      <point x="378" y="0" type="move" name="bottom"/>
    </contour>
    <contour>
      <point x="20" y="0" type="move" name="bottomleft"/>
    </contour>
    <contour>
      <point x="378" y="543" type="move" name="center"/>
    </contour>
    <contour>
      <point x="378" y="1085" type="move" name="top"/>
    </contour>
    <contour>
      <point x="20" y="1085" type="move" name="topleft"/>
    </contour>
  </outline>
</glyph>
<glyph name="dasiaoxia" format="1">
  <advance width="614"/>
  <unicode hex="1FDE"/>
  <outline>
    <contour>
      <point x="371" y="1135" type="line"/>
      <point x="426" y="1135" type="line"/>
      <point x="470" y="1200"/>
      <point x="545" y="1371"/>
      <point x="557" y="1442" type="curve"/>
      <point x="557" y="1462" type="line"/>
      <point x="446" y="1462" type="line"/>
      <point x="437" y="1387"/>
      <point x="406" y="1246"/>
      <point x="371" y="1155" type="curve"/>
    </contour>
    <contour>
      <point x="244" y="1128" type="curve" smooth="yes"/>
      <point x="287" y="1128"/>
      <point x="315" y="1155"/>
      <point x="315" y="1196" type="curve" smooth="yes"/>
      <point x="315" y="1229"/>
      <point x="292" y="1242"/>
      <point x="268" y="1254" type="curve" smooth="yes"/>
      <point x="244" y="1266"/>
      <point x="221" y="1277"/>
      <point x="221" y="1309" type="curve" smooth="yes"/>
      <point x="221" y="1335"/>
      <point x="235" y="1357"/>
      <point x="262" y="1377" type="curve" smooth="yes"/>
      <point x="283" y="1391"/>
      <point x="311" y="1404"/>
      <point x="348" y="1415" type="curve"/>
      <point x="348" y="1470" type="line"/>
      <point x="212" y="1431"/>
      <point x="143" y="1367"/>
      <point x="143" y="1255" type="curve" smooth="yes"/>
      <point x="143" y="1179"/>
      <point x="181" y="1128"/>
    </contour>
    <contour>
      <point x="350" y="1085" type="move" name="_top"/>
    </contour>
    <contour>
      <point x="573.546" y="1462" type="move" name="_topleft"/>
    </contour>
    <contour>
      <point x="350" y="1470" type="move" name="top"/>
    </contour>
  </outline>
</glyph>
<glyph name="underscoredbl" format="1">
  <advance width="842"/>
  <unicode hex="2017"/>
  <note>
    underscoredbl
  </note>
  <outline>
    <contour>
      <point x="-4" y="-266" type="line"/>
      <point x="846" y="-266" type="line"/>
      <point x="846" y="-184" type="line"/>
      <point x="-4" y="-184" type="line"/>
    </contour>
    <contour>
      <point x="-4" y="-490" type="line"/>
      <point x="846" y="-490" type="line"/>
      <point x="846" y="-408" type="line"/>
      <point x="-4" y="-408" type="line"/>
    </contour>
  </outline>
</glyph>
<glyph name="quoteright" format="1">
  <advance width="315"/>
  <unicode hex="2019"/>
  <note>
    quoteright
  </note>
  <outline>
    <contour>
      <point x="43" y="993" type="curve"/>
      <point x="106" y="993" type="line"/>
      <point x="174" y="1146"/>
      <point x="229" y="1295"/>
      <point x="272" y="1440" type="curve"/>
      <point x="258" y="1462" type="line"/>
      <point x="143" y="1462" type="line"/>
      <point x="126" y="1319"/>
      <point x="93" y="1163"/>
    </contour>
  </outline>
</glyph>
<glyph name="quotereversed" format="1">
  <advance width="315"/>
  <unicode hex="201B"/>
  <note>
    quotereversed
  </note>
  <outline>
    <contour>
      <point x="209" y="993" type="curve"/>
      <point x="272" y="993" type="line"/>
      <point x="222" y="1163"/>
      <point x="189" y="1319"/>
      <point x="172" y="1462" type="curve"/>
      <point x="57" y="1462" type="line"/>
      <point x="43" y="1440" type="line"/>
      <point x="86" y="1295"/>
      <point x="141" y="1146"/>
    </contour>
  </outline>
</glyph>
<glyph name="dagger" format="1">
  <advance width="883"/>
  <unicode hex="2020"/>
  <note>
    dagger
  </note>
  <outline>
    <contour>
      <point x="373" y="0" type="line"/>
      <point x="489" y="0" type="line"/>
      <point x="465" y="1065" type="line"/>
      <point x="760" y="1055" type="line"/>
      <point x="760" y="1147" type="line"/>
      <point x="465" y="1128" type="line"/>
      <point x="489" y="1556" type="line"/>
      <point x="373" y="1556" type="line"/>
      <point x="397" y="1128" type="line"/>
      <point x="123" y="1147" type="line"/>
      <point x="123" y="1055" type="line"/>
      <point x="397" y="1065" type="line"/>
    </contour>
  </outline>
</glyph>
<glyph name="minute" format="1">
  <advance width="389"/>
  <unicode hex="2032"/>
  <note>
    minute
  </note>
  <outline>
    <contour>
      <point x="166" y="934" type="line"/>
      <point x="227" y="934" type="line"/>
      <point x="256" y="1462" type="line"/>
      <point x="133" y="1462" type="line"/>
    </contour>
  </outline>
</glyph>
<glyph name="zerosuperior" format="1">
  <advance width="614"/>
  <unicode hex="2070"/>
  <note>
    zerosuperior
  </note>
  <outline>
    <contour>
      <point x="305" y="569" type="curve" smooth="yes"/>
      <point x="465" y="569"/>
      <point x="553" y="725"/>
      <point x="553" y="1030" type="curve" smooth="yes"/>
      <point x="553" y="1322"/>
      <point x="464" y="1483"/>
      <point x="305" y="1483" type="curve" smooth="yes"/>
      <point x="142" y="1483"/>
      <point x="61" y="1332"/>
      <point x="61" y="1030" type="curve" smooth="yes"/>
      <point x="61" y="737"/>
      <point x="148" y="569"/>
    </contour>
    <contour>
      <point x="305" y="651" type="curve" smooth="yes"/>
      <point x="245" y="651"/>
      <point x="203" y="698"/>
      <point x="179" y="791" type="curve" smooth="yes"/>
      <point x="164" y="851"/>
      <point x="156" y="930"/>
      <point x="156" y="1028" type="curve" smooth="yes"/>
      <point x="156" y="1155"/>
      <point x="168" y="1249"/>
      <point x="192" y="1310" type="curve" smooth="yes"/>
      <point x="216" y="1371"/>
      <point x="253" y="1401"/>
      <point x="303" y="1401" type="curve" smooth="yes"/>
      <point x="352" y="1401"/>
      <point x="391" y="1371"/>
      <point x="418" y="1311" type="curve" smooth="yes"/>
      <point x="445" y="1250"/>
      <point x="459" y="1157"/>
      <point x="459" y="1030" type="curve" smooth="yes"/>
      <point x="459" y="903"/>
      <point x="446" y="809"/>
      <point x="419" y="746" type="curve" smooth="yes"/>
      <point x="392" y="683"/>
      <point x="354" y="651"/>
    </contour>
  </outline>
</glyph>
<glyph name="infinity" format="1">
  <advance width="1454"/>
  <unicode hex="221E"/>
  <note>
    infinity
  </note>
  <outline>
    <contour>
      <point x="1057" y="412" type="curve" smooth="yes"/>
      <point x="1214" y="412"/>
      <point x="1333" y="550"/>
      <point x="1333" y="715" type="curve" smooth="yes"/>
      <point x="1333" y="891"/>
      <point x="1212" y="1014"/>
      <point x="1057" y="1014" type="curve" smooth="yes"/>
      <point x="922" y="1014"/>
      <point x="802" y="931"/>
      <point x="723" y="784" type="curve"/>
      <point x="636" y="955"/>
      <point x="541" y="1026"/>
      <point x="406" y="1026" type="curve" smooth="yes"/>
      <point x="243" y="1026"/>
      <point x="121" y="899"/>
      <point x="121" y="723" type="curve" smooth="yes"/>
      <point x="121" y="536"/>
      <point x="237" y="418"/>
      <point x="406" y="418" type="curve" smooth="yes"/>
      <point x="531" y="418"/>
      <point x="650" y="506"/>
      <point x="729" y="657" type="curve"/>
      <point x="810" y="494"/>
      <point x="919" y="412"/>
    </contour>
    <contour>
      <point x="414" y="504" type="curve" smooth="yes"/>
      <point x="285" y="504"/>
      <point x="203" y="590"/>
      <point x="203" y="719" type="curve" smooth="yes"/>
      <point x="203" y="852"/>
      <point x="287" y="936"/>
      <point x="416" y="936" type="curve" smooth="yes"/>
      <point x="520" y="936"/>
      <point x="611" y="862"/>
      <point x="688" y="715" type="curve"/>
      <point x="609" y="570"/>
      <point x="522" y="504"/>
    </contour>
    <contour>
      <point x="1038" y="502" type="curve" smooth="yes"/>
      <point x="935" y="502"/>
      <point x="844" y="577"/>
      <point x="764" y="727" type="curve"/>
      <point x="848" y="870"/>
      <point x="931" y="928"/>
      <point x="1036" y="928" type="curve" smooth="yes"/>
      <point x="1171" y="928"/>
      <point x="1251" y="838"/>
      <point x="1251" y="717" type="curve" smooth="yes"/>
      <point x="1251" y="585"/>
      <point x="1167" y="502"/>
    </contour>
  </outline>
</glyph>
<glyph name="approxequal" format="1">
  <advance width="819"/>
  <unicode hex="2248"/>
  <note>
    approxequal
  </note>
  <outline>
    <contour>
      <point x="59" y="829" type="line"/>
      <point x="116" y="904"/>
      <point x="187" y="950"/>
      <point x="242" y="950" type="curve" smooth="yes"/>
      <point x="285" y="950"/>
      <point x="314" y="939"/>
      <point x="393" y="895" type="curve" smooth="yes"/>
      <point x="485" y="844"/>
      <point x="515" y="836"/>
      <point x="580" y="836" type="curve" smooth="yes"/>
      <point x="651" y="836"/>
      <point x="711" y="871"/>
      <point x="760" y="940" type="curve"/>
      <point x="760" y="1038" type="line"/>
      <point x="711" y="970"/>
      <point x="645" y="922"/>
      <point x="580" y="922" type="curve" smooth="yes"/>
      <point x="533" y="922"/>
      <point x="493" y="938"/>
      <point x="428" y="975" type="curve" smooth="yes"/>
      <point x="331" y="1028"/>
      <point x="296" y="1034"/>
      <point x="244" y="1034" type="curve" smooth="yes"/>
      <point x="171" y="1034"/>
      <point x="109" y="999"/>
      <point x="59" y="928" type="curve"/>
    </contour>
    <contour>
      <point x="59" y="398" type="line"/>
      <point x="116" y="473"/>
      <point x="187" y="519"/>
      <point x="242" y="519" type="curve" smooth="yes"/>
      <point x="285" y="519"/>
      <point x="314" y="508"/>
      <point x="393" y="464" type="curve" smooth="yes"/>
      <point x="485" y="413"/>
      <point x="515" y="405"/>
      <point x="580" y="405" type="curve" smooth="yes"/>
      <point x="651" y="405"/>
      <point x="711" y="440"/>
      <point x="760" y="509" type="curve"/>
      <point x="760" y="607" type="line"/>
      <point x="711" y="539"/>
      <point x="645" y="491"/>
      <point x="580" y="491" type="curve" smooth="yes"/>
      <point x="533" y="491"/>
      <point x="493" y="507"/>
      <point x="428" y="544" type="curve" smooth="yes"/>
      <point x="331" y="597"/>
      <point x="296" y="603"/>
      <point x="244" y="603" type="curve" smooth="yes"/>
      <point x="171" y="603"/>
      <point x="109" y="568"/>
      <point x="59" y="497" type="curve"/>
    </contour>
  </outline>
</glyph>
<glyph name="n-arylogicaland" format="1">
  <advance width="1884"/>
  <unicode hex="22C0"/>
  <note>
    narylogicaland
  </note>
  <outline>
    <contour>
      <point x="104" y="-188" type="line"/>
      <point x="260" y="-188" type="line"/>
      <point x="942" y="1268" type="line"/>
      <point x="1624" y="-188" type="line"/>
      <point x="1780" y="-188" type="line"/>
      <point x="1004" y="1462" type="line"/>
      <point x="881" y="1462" type="line"/>
    </contour>
  </outline>
</glyph>
<glyph name="leftsquarebracketextension" format="1">
  <advance width="627"/>
  <unicode hex="23A2"/>
  <note>
    leftsquarebracketextension
  </note>
  <outline>
    <contour>
      <point x="104" y="-600" type="line"/>
      <point x="279" y="-600" type="line"/>
      <point x="279" y="2189" type="line"/>
      <point x="104" y="2189" type="line"/>
    </contour>
  </outline>
</glyph>
<glyph name="tripleVerticalBarDelimiter" format="1">
  <advance width="915"/>
  <unicode hex="2980"/>
  <note>
    tripleVerticalBarDelimiter
  </note>
  <outline>
    <contour>
      <point x="666" y="-225" type="line"/>
      <point x="811" y="-225" type="line"/>
      <point x="811" y="1556" type="line"/>
      <point x="666" y="1556" type="line"/>
    </contour>
    <contour>
      <point x="104" y="-225" type="line"/>
      <point x="250" y="-225" type="line"/>
      <point x="250" y="1556" type="line"/>
      <point x="104" y="1556" type="line"/>
    </contour>
    <contour>
      <point x="385" y="-225" type="line"/>
      <point x="530" y="-225" type="line"/>
      <point x="530" y="1556" type="line"/>
      <point x="385" y="1556" type="line"/>
    </contour>
  </outline>
</glyph>
<glyph name="largerThan" format="1">
  <advance width="1395"/>
  <unicode hex="2AAB"/>
  <note>
    largerThan
  </note>
  <outline>
    <contour>
      <point x="104" y="80" type="line"/>
      <point x="1290" y="657" type="line"/>
      <point x="1290" y="760" type="line"/>
      <point x="104" y="1337" type="line"/>
      <point x="104" y="1167" type="line"/>
      <point x="928" y="780" type="line"/>
      <point x="104" y="780" type="line"/>
      <point x="104" y="637" type="line"/>
      <point x="928" y="637" type="line"/>
      <point x="104" y="250" type="line"/>
    </contour>
  </outline>
</glyph>
<glyph name="ldoubleStruck" format="1">
  <advance width="662"/>
  <unicode hex="1D55D"/>
  <note>
    ldoubleStruck
  </note>
  <outline>
    <contour>
      <point x="154" y="0" type="line"/>
      <point x="508" y="0" type="line"/>
      <point x="508" y="1556" type="line"/>
      <point x="154" y="1556" type="line"/>
    </contour>
    <contour>
      <point x="262" y="109" type="line"/>
      <point x="262" y="1448" type="line"/>
      <point x="399" y="1448" type="line"/>
      <point x="399" y="109" type="line"/>
    </contour>
  </outline>
</glyph>
<glyph name="I.ss01" format="1">
  <advance width="395"/>
  <note>
    g44
  </note>
  <outline>
    <contour>
      <point x="35" y="0" type="line"/>
      <point x="360" y="0" type="line"/>
      <point x="360" y="66" type="line"/>
      <point x="246" y="86" type="line"/>
      <point x="246" y="1376" type="line"/>
      <point x="360" y="1397" type="line"/>
      <point x="360" y="1462" type="line"/>
      <point x="35" y="1462" type="line"/>
      <point x="35" y="1397" type="line"/>
      <point x="148" y="1376" type="line"/>
      <point x="148" y="86" type="line"/>
      <point x="35" y="66" type="line"/>
    </contour>
    <contour>
      <point x="200" y="0" type="move" name="bottom"/>
    </contour>
    <contour>
      <point x="360" y="10" type="move" name="ogonek"/>
    </contour>
    <contour>
      <point x="200" y="1462" type="move" name="top"/>
    </contour>
    <contour>
      <point x="20" y="1462" type="move" name="topleft"/>
    </contour>
  </outline>
</glyph>
<glyph name="cyrillichookleft" format="1">
  <advance width="420"/>
  <outline>
    <contour>
      <point x="158" y="-446" type="curve" smooth="yes"/>
      <point x="270" y="-446"/>
      <point x="326" y="-387"/>
      <point x="326" y="-270" type="curve" smooth="yes"/>
      <point x="326" y="-178"/>
      <point x="266" y="-64"/>
      <point x="182" y="0" type="curve"/>
      <point x="104" y="0" type="line"/>
      <point x="199" y="-95"/>
      <point x="236" y="-175"/>
      <point x="236" y="-260" type="curve" smooth="yes"/>
      <point x="236" y="-333"/>
      <point x="204" y="-369"/>
      <point x="139" y="-369" type="curve" smooth="yes"/>
      <point x="113" y="-369"/>
      <point x="94" y="-366"/>
      <point x="82" y="-360" type="curve"/>
      <point x="82" y="-434" type="line"/>
      <point x="102" y="-442"/>
      <point x="127" y="-446"/>
    </contour>
    <contour>
      <point x="195.517" y="3" type="move" name="_bottom"/>
    </contour>
  </outline>
</glyph>
<glyph name="dagesh-hb.small" format="1">
  <advance width="600"/>
  <outline>
    <contour>
      <point x="299" y="351" type="curve" smooth="yes"/>
      <point x="339" y="351"/>
      <point x="365" y="374"/>
      <point x="365" y="410" type="curve" smooth="yes"/>
      <point x="365" y="445"/>
      <point x="339" y="469"/>
      <point x="299" y="469" type="curve" smooth="yes"/>
      <point x="279" y="469"/>
      <point x="263" y="464"/>
      <point x="252" y="453" type="curve" smooth="yes"/>
      <point x="241" y="442"/>
      <point x="235" y="428"/>
      <point x="235" y="410" type="curve" smooth="yes"/>
      <point x="235" y="373"/>
      <point x="258" y="351"/>
    </contour>
    <contour>
      <point x="299" y="410" type="move" name="_center"/>
    </contour>
  </outline>
</glyph>
<glyph name="three.osf" format="1">
  <advance width="744"/>
  <note>
    g902
  </note>
  <outline>
    <contour>
      <point x="317" y="-363" type="curve" smooth="yes"/>
      <point x="558" y="-363"/>
      <point x="693" y="-209"/>
      <point x="693" y="67" type="curve" smooth="yes"/>
      <point x="693" y="271"/>
      <point x="609" y="401"/>
      <point x="441" y="432" type="curve"/>
      <point x="441" y="416" type="line"/>
      <point x="582" y="454"/>
      <point x="663" y="595"/>
      <point x="663" y="775" type="curve" smooth="yes"/>
      <point x="663" y="1009"/>
      <point x="556" y="1140"/>
      <point x="366" y="1140" type="curve" smooth="yes"/>
      <point x="252" y="1140"/>
      <point x="128" y="1077"/>
      <point x="53" y="986" type="curve"/>
      <point x="103" y="915" type="line"/>
      <point x="194" y="1009"/>
      <point x="279" y="1054"/>
      <point x="367" y="1054" type="curve" smooth="yes"/>
      <point x="482" y="1054"/>
      <point x="560" y="945"/>
      <point x="560" y="785" type="curve" smooth="yes"/>
      <point x="560" y="589"/>
      <point x="464" y="464"/>
      <point x="313" y="464" type="curve" smooth="yes"/>
      <point x="190" y="464" type="line"/>
      <point x="190" y="368" type="line"/>
      <point x="311" y="368" type="line" smooth="yes"/>
      <point x="495" y="368"/>
      <point x="593" y="263"/>
      <point x="593" y="67" type="curve" smooth="yes"/>
      <point x="593" y="-155"/>
      <point x="496" y="-275"/>
      <point x="314" y="-275" type="curve" smooth="yes"/>
      <point x="226" y="-275"/>
      <point x="138" y="-238"/>
      <point x="41" y="-181" type="curve"/>
      <point x="41" y="-280" type="line"/>
      <point x="116" y="-331"/>
      <point x="214" y="-363"/>
    </contour>
  </outline>
</glyph>
